<?xml version="1.0" encoding="UTF-8"?>
<svg width="140px" height="40px" id="Layer_1" data-name="Layer 1" xmlns="http://www.w3.org/2000/svg" viewBox="0 0 500.26 103.62">
    <defs>
        <style>.cls-1,.cls-2{fill:#fff;}.cls-2{fill-rule:evenodd;}</style>
    </defs>
    <title>shcup_neg_m</title>
    <path class="cls-1" d="M207.71,372.88l2.3,11.68-3.09.63c-1.87-7.77-8.44-12.79-16.75-12.79-10.19,0-17.78,9-17.78,21.1,0,12.47,7.9,21.56,18.74,21.56,8.57,0,14.56-4.91,16.84-13.8l3.09.39-1.28,11.29c-7.9,4.12-13.64,5.75-20.28,5.75-15.94,0-26.78-10.36-26.78-25.6,0-14.68,10.49-24.46,26.23-24.46,6.25,0,10,.81,17.46,3.74Z" transform="translate(-47.52 -368.51)" />
    <path class="cls-1" d="M268.83,377c1.44,3.1,2,4.22,3.77,7.83q2.37,4.77,3,6.15l2.5,5.18,2.43,4.94.85,1.76c1.43-2.73,1.92-3.74,3.38-7l2.69-5.92,2.83-6.21,2.33-5.27.65-1.51h14.09v1.9a8.59,8.59,0,0,0-1.89-.23c-3.88,0-4.57,1.33-4.57,8.76v14.72c0,7.12.84,8.78,4.43,8.78a13.24,13.24,0,0,0,2.26-.25v1.9H287.42v-1.9a6,6,0,0,0,1.62.25c3.39,0,4.25-1.79,4.25-8.78V384c-.46.89-.8,1.57-1,2s-1,2.15-2.52,5.44l-2.81,6.09-3.09,7q-2.36,5.32-2.69,6.12c-.15.35-.37.88-.65,1.59h-2.33l-.79-1.76c-2.9-6.42-3.4-7.49-5.53-11.88L269,392.73q-2.24-4.59-2.86-5.84c-.3-.58-.74-1.44-1.34-2.58v19.56c0,5.31,1.22,7.05,4.93,7.05a3.9,3.9,0,0,0,1.51-.25v1.9H255.68v-1.9a7.57,7.57,0,0,0,1.71.26c3.53,0,4.35-1.65,4.35-8.79V385.69c0-5.67-.81-7-4.22-7a4.77,4.77,0,0,0-1.62.23V377Z" transform="translate(-47.52 -368.51)" />
    <path class="cls-1" d="M417.7,410.67v1.9H394.32v-1.9a16.33,16.33,0,0,0,2.78.25c4.26,0,5.1-1.44,5.1-8.78V387.42c0-7.4-.79-8.76-5.14-8.76a8.81,8.81,0,0,0-2.26.23V377h22.71v1.9a13.06,13.06,0,0,0-2.65-.23c-4.42,0-5.23,1.38-5.23,8.76v14.72c0,7.3.87,8.78,5.13,8.78A17.87,17.87,0,0,0,417.7,410.67Z" transform="translate(-47.52 -368.51)" />
    <path class="cls-1" d="M503.62,377.84l1.79,9.07-2.67.49c-2.26-6.39-5.88-9.25-11.72-9.25-8.33,0-13.85,6.2-13.85,15.55,0,10,6.14,17,14.79,17a14.8,14.8,0,0,0,5.74-1.05v-9.81c0-2.76-.92-3.77-3.42-3.77-.29,0-.72,0-1.29,0l-.42,0v-2.09h17.74v2.09l-.56,0-.74,0h-.23c-3.22,0-3.89.92-3.89,5.32,0,2.58.08,6.29.21,9.34-2.11.39-4.37.85-6.18,1.25-5.29,1.17-7.48,1.48-10.58,1.48-11.28,0-18.95-7.46-18.95-18.41,0-11.57,7.82-18.84,20.27-18.84a45.53,45.53,0,0,1,6.85.56l3.09.49,2.78.37Z" transform="translate(-47.52 -368.51)" />
    <path class="cls-1" d="M544.16,377l1.36,7.68-2.13.4c-.94-4.58-3.09-5.81-10.22-5.81a26,26,0,0,0-5.79.6V392.3h6.26c3.5,0,4.48-.76,4.48-3.47a8.71,8.71,0,0,0-.09-1.32h2.13v12.1H538a16.8,16.8,0,0,0,.12-1.7c0-2.35-1.17-3.17-4.51-3.17h-6.26v14.68h7.68c5.94,0,7.85-1.2,10.06-6.32l.4-.91,2.27.8-3.35,9.58H512.18v-1.9a16.54,16.54,0,0,0,2.84.25c4.14,0,5-1.58,5-8.78V387.42c0-7.32-.85-8.76-5.19-8.76a8.57,8.57,0,0,0-2.21.23V377Z" transform="translate(-47.52 -368.51)" />
    <path class="cls-1" d="M165.48,431.59v-1.22h12.73v1.22l-.32-.06-.51,0-.53-.06h-.14c-1.65,0-2.6,1.18-2.64,3.3l0,1.36,0,1.07v7.18c0,5.29,2.06,7.65,6.67,7.65,3.92,0,6.6-2.59,6.6-6.38V436c0-3.44-.72-4.6-2.82-4.6h-.16l-.48.06-.65,0-.26.06v-1.22h10.8v1.22l-.28-.06-.57,0-.57-.06h-.2c-2.22,0-2.92,1.1-2.92,4.6v8.31c0,6.73-3.08,9.75-9.95,9.75-6.21,0-9.94-3.06-9.94-8.14v-8.79l0-1.07-.06-1.36c-.09-2.18-1-3.29-2.57-3.29A5.93,5.93,0,0,0,165.48,431.59Z" transform="translate(-47.52 -368.51)" />
    <path class="cls-1" d="M204.34,430.37l.62.74,2.24,2.94,2.7,3.38,2.58,3.2c.91,1.13,1.68,2.08,2.32,2.83,1.19,1.42,1.9,2.27,2.13,2.56l.68.87V436c0-3.34-.8-4.59-2.93-4.59l-.56.06-.48,0-.26.06v-1.22H223.7v1.22a5.75,5.75,0,0,0-1.32-.17c-2.17,0-3,1.25-3,4.59V453.1a10.5,10.5,0,0,1-1,.6c-.47.25-.63.34-1.07.62l-.63-.76-2.66-3.4c-.87-1.12-1.67-2.13-2.41-3-.94-1.14-1.54-1.9-1.82-2.27l-.62-.82L202,435.1v11.6l0,1.13,0,1.39c0,2.12,1,3.17,2.87,3.17a3.54,3.54,0,0,0,1.16-.14v1.25H195.78v-1.25a6.28,6.28,0,0,0,1.49.15c2.16,0,2.88-1.14,2.88-4.57V436c0-3.4-.79-4.59-3-4.59H197l-.68.06-.57,0-.28.06v-1.22Z" transform="translate(-47.52 -368.51)" />
    <path class="cls-1" d="M241.28,452.25v1.25H226.05v-1.25a10.51,10.51,0,0,0,1.91.14c2.07,0,3.13-1.05,3.17-3.17l0-1.39,0-1.13v-9.56l0-1.13,0-1.39c0-2.11-1.13-3.2-3.17-3.2l-.77.06-.54,0-.26.06v-1.22h14.74v1.22l-.34-.06-.65,0a8.26,8.26,0,0,0-.91-.06c-2.43,0-3.2,1.1-3.2,4.59v11.82c0,3.53.73,4.56,3.23,4.56A11.91,11.91,0,0,0,241.28,452.25Z" transform="translate(-47.52 -368.51)" />
    <path class="cls-1" d="M268.46,430.37v1.22l-.45-.09a4,4,0,0,0-.7-.08,3.07,3.07,0,0,0-3.13,2.24l-.65,1.64-.88,2.18-.74,2-.37,1-5.16,13.81h-1.53c-.54-1.34-.66-1.68-1.41-3.66-.94-2.49-1.31-3.43-2.47-6.38l-1.59-4q-.82-2.11-1.47-3.63l-1-2.49c-.77-1.92-1.62-2.61-3.21-2.61a6.73,6.73,0,0,0-1.61.17v-1.22h12.81v1.22l-.39-.06-.51,0-.37-.06h-.13c-1.06,0-1.74.51-1.74,1.29a2.33,2.33,0,0,0,.25,1l.26.71c.06.18.13.35.2.54l4.53,12,4.79-12.75.14-.4.15-.45.11-.31,0-.32c0-.89-.57-1.28-1.89-1.28a2.37,2.37,0,0,0-.61.07l-.37.08-.28,0v-1.22Z" transform="translate(-47.52 -368.51)" />
    <path class="cls-1" d="M290,430.37l.88,5-1.36.25c-.54-2.94-2.07-3.8-6.77-3.8a15.3,15.3,0,0,0-2.95.29l-.68.11v8.08h4.62c1.64,0,2.35-.66,2.35-2.2a6.19,6.19,0,0,0-.08-.92h1.38v7.88H286a6.57,6.57,0,0,0,.11-1.09c0-1.3-.83-2-2.27-2h-4.73v9.52h5c4,0,5.38-1,6.77-4.7l1.47.53-2.15,6.24h-21v-1.25a10.46,10.46,0,0,0,1.9.14c2.43,0,3.21-1.1,3.21-4.56V436c0-3.41-.81-4.59-3.15-4.59l-.82.06-.54,0-.28.06v-1.22Z" transform="translate(-47.52 -368.51)" />
    <path class="cls-1" d="M341,430.85v5.93h-1.33c-.53-3.7-2.21-5.36-5.42-5.36-2.45,0-4.25,1.41-4.25,3.33,0,1.51.94,2.52,3.43,3.7l2.52,1.19c4.6,2.17,6.21,4,6.21,7.14,0,4.25-3.9,7.18-9.56,7.18a22.67,22.67,0,0,1-5.29-.74,9.67,9.67,0,0,0-1.5-.26l.19-6.75h1.45c.18,3.68,2.42,6.07,5.69,6.07a4.17,4.17,0,0,0,4.43-4c0-2.05-.85-2.86-5.64-5.31s-6-3.84-6-6.64c0-3.81,3.39-6.37,8.42-6.37a19,19,0,0,1,4.65.65,5.69,5.69,0,0,0,1.77.28Z" transform="translate(-47.52 -368.51)" />
    <path class="cls-1" d="M362.06,452.25v1.25H346.87v-1.25a10.39,10.39,0,0,0,1.9.14c2.46,0,3.2-1.05,3.2-4.56V436c0-3.5-.76-4.59-3.2-4.59l-.77.06-.54,0-.28.06v-1.22H362v1.22l-.34-.06-.68,0c-.72-.06-.76-.06-.89-.06-2,0-3.12,1.1-3.17,3.2l0,1.39,0,1.13v9.56l0,1.13,0,1.39c.05,2.13,1.09,3.17,3.2,3.17A11.7,11.7,0,0,0,362.06,452.25Z" transform="translate(-47.52 -368.51)" />
    <path class="cls-1" d="M384.4,430.37l.59,6.29h-1.41l-.09-.62c-.42-3.11-.95-3.82-2.92-3.91l-.6,0h-3.06v15.67c0,3.44.72,4.62,2.81,4.62a5.82,5.82,0,0,0,1.3-.14v1.25H367.9v-1.25a6.16,6.16,0,0,0,1.36.15c1.72,0,2.68-1.16,2.72-3.29l0-1.34,0-1.07V432.1h-3.43c-2.18,0-2.85,1-3.12,4.56H364l.56-6.29Z" transform="translate(-47.52 -368.51)" />
    <path class="cls-1" d="M413.31,430.37v1.22a4,4,0,0,0-1.29-.17,3.31,3.31,0,0,0-2.82,1.36l-.71,1-.71,1-.42.68-5,7.6v3.66l0,1.07,0,1.34c.05,2.11,1,3.28,2.75,3.28a6.33,6.33,0,0,0,1.42-.14v1.25H393.44v-1.25a6.33,6.33,0,0,0,1.4.14c1.74,0,2.72-1.17,2.77-3.28l0-1.34,0-1.07v-3.49l-3.94-5.67-.59-.88L391.94,435l-1.08-1.53c-1.11-1.57-1.91-2-3.48-2a7.79,7.79,0,0,0-1.2.11l-.39.06v-1.22h12.7v1.22l-.32-.06-.39,0-.48-.06c-.78,0-1.37.46-1.37,1.08a1.6,1.6,0,0,0,.4,1l5.13,7.59,4.11-6.4.26-.49.39-.59a2.25,2.25,0,0,0,.46-1.16c0-.61-.64-1.05-1.52-1.05l-.52.06-.46,0-.28.06v-1.22Z" transform="translate(-47.52 -368.51)" />
    <path class="cls-1" d="M498.52,430.37l.85,5-1.39.25c-.4-2.87-2-3.8-6.75-3.8a15.22,15.22,0,0,0-3,.29l-.65.11v8.08h4.62c1.6,0,2.35-.64,2.35-2l0-.69,0-.4h1.39v7.88h-1.39l0-.39.06-.63v-.17c0-1.22-.87-1.95-2.28-1.95h-4.73v9.52h5c3.87,0,5.12-.79,6.53-4.11.05-.13.14-.33.25-.59l1.47.53-2.15,6.24h-21v-1.25a10.46,10.46,0,0,0,1.9.14,2.87,2.87,0,0,0,3.18-3.17l0-1.39,0-1.13v-9.56l0-1.13,0-1.39a2.91,2.91,0,0,0-3.1-3.2l-.84.06-.57,0-.25.06v-1.22Z" transform="translate(-47.52 -368.51)" />
    <path class="cls-1" d="M521,430.85v5.93h-1.3c-.52-3.67-2.24-5.36-5.46-5.36-2.42,0-4.21,1.4-4.21,3.29,0,1.54.95,2.58,3.4,3.74l2.52,1.19c4.68,2.21,6.21,4,6.21,7.11,0,4.31-3.85,7.21-9.57,7.21a23.7,23.7,0,0,1-5.28-.74,9.46,9.46,0,0,0-1.5-.26l.22-6.75h1.42c.34,3.87,2.42,6.07,5.7,6.07a4.21,4.21,0,0,0,4.45-4c0-2-1-2.95-5.64-5.31s-6-3.81-6-6.58c0-3.87,3.34-6.43,8.39-6.43a18.11,18.11,0,0,1,4.65.65,6.25,6.25,0,0,0,1.74.28Z" transform="translate(-47.52 -368.51)" />
    <path class="cls-1" d="M543,430.85v5.93h-1.34c-.53-3.73-2.19-5.36-5.44-5.36-2.4,0-4.22,1.43-4.22,3.33,0,1.51.91,2.5,3.43,3.7l2.49,1.19c4.78,2.28,6.24,3.94,6.24,7.12,0,4.28-3.87,7.2-9.56,7.2a22.6,22.6,0,0,1-5.29-.74,9.77,9.77,0,0,0-1.51-.26l.2-6.75h1.45c.17,3.67,2.43,6.07,5.68,6.07a4.18,4.18,0,0,0,4.44-4.09c0-2-.83-2.81-5.64-5.26s-6-3.81-6-6.62c0-3.85,3.32-6.39,8.37-6.39a18.9,18.9,0,0,1,4.67.65,5.51,5.51,0,0,0,1.78.28Z" transform="translate(-47.52 -368.51)" />
    <path class="cls-1" d="M234.05,374.84,240.51,391l.37.94c6.54,16.61,8,19,11.81,19a5.4,5.4,0,0,0,1.6-.28v1.9H234.62v-1.9a6.17,6.17,0,0,0,1.95.26c2,0,3-.73,3-2.21a5.68,5.68,0,0,0-.43-1.79l-2.12-5.7H224.89l-1.67,4.34-.31.85-.37,1a4.3,4.3,0,0,0-.21,1.24c0,1.45,1.24,2.3,3.33,2.3a7.6,7.6,0,0,0,2.09-.28v1.9H212.16v-1.9a6.46,6.46,0,0,0,1.68.23c2.84,0,4.21-1.5,6.57-7.18l.91-2.18.54-1.27,10.57-25.43Zm-3,11.11-5.21,12.67H236Z" transform="translate(-47.52 -368.51)" />
    <path class="cls-1" d="M311.72,378.89V377h12.7c1.14,0,3-.05,6.17-.17,1.54-.05,2.7-.08,3.51-.08,6.49,0,10.36,2.82,10.36,7.56,0,4.56-3.06,7.54-9.1,8.85,7.15.52,10.51,3.34,10.51,8.81,0,7-5.46,10.72-15.5,10.72-.74,0-1.87,0-3.4-.06l-3.46-.05H311.18v-1.9a15.43,15.43,0,0,0,2.81.25c4.2,0,5-1.47,5-8.78V387.42c0-7.42-.79-8.76-5.17-8.76A8.44,8.44,0,0,0,311.72,378.89Zm14.4,13.52a17.85,17.85,0,0,0,2.77.23c4.83,0,8.4-3.33,8.4-7.83,0-3.54-3.05-6.17-7.15-6.17a11,11,0,0,0-4,.82Zm0,17.41a18.44,18.44,0,0,0,4.27.51c4.62,0,7.86-3.53,7.86-8.54,0-4.6-3.32-7.2-9.18-7.2a13.66,13.66,0,0,0-2.95.32Z" transform="translate(-47.52 -368.51)" />
    <path class="cls-1" d="M351.77,378.89V377h11.71l2.66-.08,2.72-.09c2.32-.07,3.11-.09,3.71-.09,8,0,12,2.83,12,8.59,0,5.27-3.15,8.36-9.24,9.05,3.55,1.88,4.84,3.28,7.42,8.08,3.46,6.4,5.38,8.36,8.21,8.36a12.75,12.75,0,0,0,1.6-.14v1.9h-5l-1.73.05-1.52,0c-3.48,0-5-1.13-7.26-5.39l-1.45-2.72c-3.76-7.09-5.41-8.56-9.58-8.59v6.18c0,7.36.82,8.78,5.06,8.78a12,12,0,0,0,2.42-.25v1.9H351.2v-1.9a17.32,17.32,0,0,0,2.78.25c3.88,0,5.1-1.69,5.1-7.05V385.69c0-5.38-1.18-7-5.05-7A9.85,9.85,0,0,0,351.77,378.89ZM366,393.94a19.58,19.58,0,0,0,2.34.13c5.61,0,8.63-2.86,8.63-8.18,0-4.4-2.82-7.34-7-7.34a13.87,13.87,0,0,0-3.93.65Z" transform="translate(-47.52 -368.51)" />
    <path class="cls-1" d="M421.76,378.89V377h12.38l2.56-.08,3-.09q3.15-.09,4.32-.09c12.44,0,19,5.52,19,15.94,0,12.16-8.61,20-21.94,20l-3.94-.08-2.58,0H421.36v-1.9a17.74,17.74,0,0,0,2.89.25c4.26,0,5.13-1.49,5.13-8.78V387.42c0-7.38-.82-8.76-5.23-8.76A9.9,9.9,0,0,0,421.76,378.89Zm15,30.67a16.12,16.12,0,0,0,5.6,1c7.79,0,12.74-6.69,12.74-17.19,0-9.21-4.71-14.53-12.86-14.53a17.14,17.14,0,0,0-5.48.9Z" transform="translate(-47.52 -368.51)" />
    <path class="cls-1" d="M295.5,431.59v-1.22h6.83l.8,0,1.73,0,1.75-.05c1,0,1.86-.06,2.37-.06,5.3,0,7.87,1.81,7.87,5.55,0,3.42-2,5.42-6,5.9,2.39,1.35,3.08,2.09,4.82,5.24,2.57,4.67,3.36,5.43,5.66,5.43a4.51,4.51,0,0,0,.69-.07v1.25h-3.23l-1.14,0h-.73c-2.55,0-3.47-.65-5-3.5l-.93-1.78c-2.35-4.51-3.45-5.5-6.24-5.59v5.16c0,3.49.76,4.56,3.23,4.56a7.62,7.62,0,0,0,1.65-.14v1.25H295.16v-1.25a10.3,10.3,0,0,0,1.88.14c2.45,0,3.22-1.09,3.22-4.56V436c0-3.38-.81-4.59-3.09-4.59l-.76.06-.62,0Zm9.27,9.78a16.18,16.18,0,0,0,1.67.09c3.51,0,5.45-1.88,5.45-5.27,0-3-1.76-4.83-4.61-4.83a8.32,8.32,0,0,0-2.51.43Z" transform="translate(-47.52 -368.51)" />
    <path class="cls-1" d="M434.63,442.9v3.8l0,1.07,0,1.34c.05,2.17,1.11,3.28,3.11,3.28a8.23,8.23,0,0,0,1.66-.14v1.25h-14v-1.25a7.33,7.33,0,0,0,1.59.14c2.35,0,3.15-1.17,3.15-4.62v-11.7c0-3.41-.83-4.65-3.1-4.65-.14,0-.41,0-.82.06l-.56,0-.34.06v-1.22h6.83l.76,0,1.45,0,2-.05c1.05,0,1.82-.06,2.29-.06,5.55,0,8,1.8,8,5.82,0,4.21-3.53,7.08-8.71,7.08h-.36l-1.39-.06A9.66,9.66,0,0,1,434.63,442.9Zm0-1.59a12.79,12.79,0,0,0,2,.17c3.22,0,5.15-2,5.15-5.27,0-2.92-1.8-4.79-4.61-4.79a7.18,7.18,0,0,0-2.56.51Z" transform="translate(-47.52 -368.51)" />
    <path class="cls-1" d="M450,431.59v-1.22h6.8l.82,0,1.73,0,1.76-.05c1,0,1.84-.06,2.35-.06,5.35,0,7.86,1.78,7.86,5.59,0,3.41-2,5.4-6,5.86,2.25,1.19,3.16,2.17,4.84,5.24,2.54,4.64,3.37,5.43,5.67,5.43a4.41,4.41,0,0,0,.68-.07v1.25h-3.23l-1.13,0h-.74c-2.55,0-3.46-.65-5-3.5l-.94-1.78c-2.34-4.51-3.44-5.5-6.23-5.59v5.16c0,3.51.75,4.56,3.22,4.56a8.19,8.19,0,0,0,1.65-.14v1.25H449.65v-1.25a10.67,10.67,0,0,0,1.93.14c2.41,0,3.2-1.12,3.2-4.56V436c0-3.37-.82-4.59-3.1-4.59l-.75.06-.63,0Zm9.27,9.78a15.06,15.06,0,0,0,1.62.09c3.55,0,5.49-1.87,5.49-5.28,0-3-1.78-4.82-4.61-4.82a7.82,7.82,0,0,0-2.5.43Z" transform="translate(-47.52 -368.51)" />
    <path class="cls-1" d="M68.37,369h48.28l2.21,0h4.91c2.35,0,6.21-.12,11.67-.34l2-.09c-.3,4.23-.36,5.51-.37,7.75l0,6.48,0,6.14v34.49c0,21.7-4.9,28.92-28.22,40.42-1,.51-3.49,1.74-7.37,3.7q-4.74,2.4-6.6,3.4l-1.16.62-1.2.62-1.18-.62-1.2-.62c-4.9-2.57-10.1-5.21-14-7.1C52.9,452.4,48,445.33,48,423.37V388.88l-.06-6.14,0-6.48a59.38,59.38,0,0,0-.37-7.75l2,.09c5.37.22,9.37.34,11.7.34h4.88Zm-1.46,1.27H62.17c-2.26,0-6.14-.12-11.36-.33l-2-.09a58.26,58.26,0,0,1,.36,7.55l0,6.3.05,6V423c0,21.38,4.79,28.25,27.37,39.34,3.75,1.84,8.8,4.42,13.57,6.91l1.15.61,1.16.6,1.15-.6,1.13-.61c1.21-.65,3.34-1.75,6.41-3.3,3.76-1.91,6.15-3.11,7.15-3.61,22.65-11.19,27.4-18,27.4-39.34V389.64l0-6,0-6.3c0-2.18.07-3.43.36-7.55l-2,.09c-5.3.22-9,.33-11.33.33H118.1l-2.15,0H69.08Z" transform="translate(-47.52 -368.51)" />
    <path class="cls-1" d="M52.32,373.85a2,2,0,0,1,.33.93,9.14,9.14,0,0,1-.25,1.34,3.63,3.63,0,0,0-.17,1.08,1.21,1.21,0,0,0,.72,1c.07,0,.12.06.13.09l0,.1,0,.25,0,.55.06.76v.16c0,.13,0,.18-.11.18h0l0-.06-.06,0,0-.11-.19-.36-.17-.32a1.6,1.6,0,0,0-1.44-.88h-.38c-.09,0-.13,0-.13.08l0,.06.05.05.06.06.08.05a3.86,3.86,0,0,1,.6,1.34,3.45,3.45,0,0,0,1.8,2.38c.12.06.17.11.17.17a.23.23,0,0,1-.25.21.94.94,0,0,1-.28-.06,1.42,1.42,0,0,0-.4-.08.29.29,0,0,0-.28.32,3.4,3.4,0,0,0,.87,2l.44.44c.17.17.29.27.33.27l.21.16c.13.1.17.16.17.25a.14.14,0,0,1-.11.15H54l-.11-.08-.08,0-.14,0-.13-.06-.1,0c-.09,0-.17.12-.17.25a1.45,1.45,0,0,0,0,.29l.14.49a3.76,3.76,0,0,0,1,1.62,2.57,2.57,0,0,0,1.12.57l.3.08.22.06c.08,0,.14,0,.14.05,0,.23-.09.33-.3.33h-.47l-.19,0h-.09c-.23,0-.4.09-.4.21l0,.13.08.19.19.41a3.06,3.06,0,0,0,.44.76l.27.3c.12.13.14.14.22.14s.2-.11.27-.3.13-.25.19-.25l.35-.43a2.79,2.79,0,0,1,1.2-.66l.63-.16c.42-.11.55-.21.55-.46a2.89,2.89,0,0,0-.06-.55L59,388.7l-.05-.6-.06-.71V387l-.08-.19,0-.08-.11,0h0l-.08,0-.11.1-.14.14a2.11,2.11,0,0,0-.19.25c-.35.5-.6.65-1,.65-1.69,0-2.82-2.17-2.82-5.43,0-.9.08-2.47.17-3.58,0-.53.07-1,.07-1.33A4.18,4.18,0,0,0,52.32,373.85Z" transform="translate(-47.52 -368.51)" />
    <path class="cls-1" d="M56.3,380.3v-.11a1.43,1.43,0,0,0-.41-1,.5.5,0,0,0-.41-.22c-.23,0-.32.18-.35.63,0,.21,0,.5-.08.85a8.17,8.17,0,0,0-.09,1c0,.28.08.47.2.47a.94.94,0,0,0,.51-.35A2,2,0,0,0,56.3,380.3Z" transform="translate(-47.52 -368.51)" />
    <path class="cls-1" d="M52.35,396.54a3.2,3.2,0,0,1,.49.22,2.37,2.37,0,0,1,.54.49c.5.51.68.63.95.63a2.37,2.37,0,0,0,1.59-.63l.32-.27.28-.22h-.15a2.81,2.81,0,0,1-1.19-.36,2.71,2.71,0,0,0-1.4-.36A2.48,2.48,0,0,0,52.35,396.54Z" transform="translate(-47.52 -368.51)" />
    <path class="cls-1" d="M64.34,397.77a.93.93,0,0,1,.38.32l.13.2.14.16.27.35a.75.75,0,0,0,.76.34h.14l.46-.05.33,0,.19-.06c.17,0,.2-.06.2-.11s-.37-.58-.8-.9a4.47,4.47,0,0,0-.43-.29,2.08,2.08,0,0,0-.81-.16,1.84,1.84,0,0,0-.61.13Z" transform="translate(-47.52 -368.51)" />
    <path class="cls-1" d="M63.65,401.94a2.24,2.24,0,0,1,.67-.19l.32,0,.38,0,.41,0,.37,0c.21,0,.32-.08.77-.55a2.74,2.74,0,0,1,1.17-.77,5.33,5.33,0,0,0,.93-.46.21.21,0,0,1,.14-.07.07.07,0,0,1,.06.07.32.32,0,0,1-.13.19,2.4,2.4,0,0,0-1,1.75,1.5,1.5,0,0,0,.29,1,2.24,2.24,0,0,1,.87-1.15l.66-.54a1.81,1.81,0,0,0,.71-1.7v-.28c0-.19.06-.29.19-.29l.06,0,.11.19.05.16.11.17.11.1,0,0c.16,0,.34-.13.54-.37.52-.62.58-.75.58-1.24a1.5,1.5,0,0,0-.14-.64l-.16-.36a.57.57,0,0,1-.06-.24c0-.14.06-.22.16-.22l.09,0,.13.1.11.17c.15.21.29.33.44.33s.26-.09.41-.36l.19-.36a1.6,1.6,0,0,0,.11-.29l0-.17c0-.1-.16-.21-.36-.25a1.5,1.5,0,0,1-1.15-1.59l0-.59c0-.21.06-.38.11-.38l.14-.33.08-.35a2.12,2.12,0,0,0,.05-.25.49.49,0,0,0-.08-.22,1.79,1.79,0,0,1-.11-.19l-.16-.46-.19-.39-.19-.43c-.13-.3-.34-.52-.49-.52l-.63.3-.6.3a1.92,1.92,0,0,0-.93,1.76,4.29,4.29,0,0,0,.58,2l.6,1.23a2.78,2.78,0,0,1,.3,1.17c0,1.35-1.27,2.38-3.27,2.65C64.79,399.86,64.21,400.27,63.65,401.94Z" transform="translate(-47.52 -368.51)" />
    <path class="cls-1" d="M74.28,399.9l.16,0,.22-.06h.93l.22,0c.14,0,.21-.07.46-.46l.19-.3c.17-.26.24-.37.44-.63a1.79,1.79,0,0,0-.8-.19A2.06,2.06,0,0,0,74.28,399.9Z" transform="translate(-47.52 -368.51)" />
    <path class="cls-1" d="M54.25,398.69l1.17-.6a12.79,12.79,0,0,0,3.79-3.44,5.7,5.7,0,0,0,1.34-3.33,2.46,2.46,0,0,0-.11-.79l-.74-2a10.33,10.33,0,0,1-.43-2.95c0-1.94.28-2.82.9-2.82l.16,0,.22.11.28.11.19.05s.07,0,.07-.09a.3.3,0,0,0-.05-.15,8.93,8.93,0,0,1-1.39-4.37c-.14-1.15-.34-1.78-.57-1.78s-.14,0-.14.37l0,.46.05.38,0,.27v.22s-.06.06-.14.08l-.07,0c-.1,0-.21-.11-.42-.4a3.73,3.73,0,0,1-.73-1.87.88.88,0,0,1,1-1,1.09,1.09,0,0,1,.46.17l.25.05,0,0,.08,0,.09-.25v-.27l-.06-.28v-.06a3.56,3.56,0,0,1,.44-1.25l.11-.21.16.16.3.22.27.24a1.21,1.21,0,0,1,.34.44c.09.22.2.35.32.35s.13-.08.13-.19V374a1.53,1.53,0,0,1,.49-1.07l.33-.35.22-.25.19-.16.16.16.38.36a1.47,1.47,0,0,1,.28.41,1.57,1.57,0,0,1,.2.71,2.26,2.26,0,0,1-.1.62,1,1,0,0,0,0,.28c0,.08,0,.13.09.13s.08,0,.18-.16l.22-.25.27-.3.36-.3.43-.22.36-.21.11.21.11.31.11.16.08.41,0,.41a.76.76,0,0,0-.1.29c0,.09.08.14.21.14h.22l.41.14a.67.67,0,0,1,.3.25c.37.5.4.58.4.95a2.89,2.89,0,0,1-.4,1.37c-.36.56-.54.75-.74.75a.18.18,0,0,1-.2-.21v-.08l0-.24.06-.36,0-.38v-.28l-.06-.34a.14.14,0,0,0-.14-.11c-.23,0-.37.59-.49,2.09-.19,2.44-.34,3-.92,3.77l-.19.25-.11.16,0,.15.13,0h0l.17,0,.22-.11.27-.08.19,0c.31,0,.44.14.65.66l.25.46c.07.13.13.24.19.33s.14.24.14.31-.23.35-.51.35-.36,0-.75-.55c-.14-.19-.28-.31-.34-.31a.15.15,0,0,0-.12.07l-.06.11,0,.35,0,.38,0,.38v.05a.8.8,0,0,1-.09.36c-.08.2-.13.3-.13.3l-.11.11c-.06.07-.09.09-.13.09l-.12,0-.16-.06a.5.5,0,0,1-.19-.16,2.17,2.17,0,0,1-.38-.57l-.08-.25-.06-.11-.08-.11,0-.05c-.14,0-.2.05-.22.22l0,.3a3.82,3.82,0,0,1-.38,1.22c-.18.34-.48.61-.67.61s-.22-.09-.48-.61l-.16-.32a1.92,1.92,0,0,1-.11-.41c-.07-.35-.11-.53-.11-.55l0-.33-.05-.21,0-.11,0,0c-.15,0-.22.09-.29.37l0,.19a2.24,2.24,0,0,1-.19.33,1.61,1.61,0,0,0-.3.65.21.21,0,0,0,.08.17l.17.11.21.22.3.3a2.51,2.51,0,0,1,.33.46,5.33,5.33,0,0,1,.46.87c.13.3.22.39.45.39s.26-.07.45-.5c.36-.79.88-1.28,1.38-1.28h.31c.32,0,.42,0,.93-.41l.49-.35c1.28-.93,2.75-1.27,5.44-1.27a16.13,16.13,0,0,1,5.13.69,8.24,8.24,0,0,0,2.5.58,1,1,0,0,0,1-1c0-.73-.64-1.26-2.18-1.8-6.49-2.29-8.55-3.91-8.55-6.74a4.36,4.36,0,0,1,4.57-4.07c1,0,1.37.11,3.27,1a8,8,0,0,0,2.42.82c.39,0,.64-.21.64-.55V374l0-.22-.09-.3-.08-.11s-.08-.09-.08-.2.08-.24.2-.24a.78.78,0,0,1,.48.28,2.21,2.21,0,0,1,.6,1.43c0,.71-.42,1.06-1.25,1.06a7.72,7.72,0,0,1-2.34-.61l-1.2-.57L75,374a.74.74,0,0,0-.29-.08c-.09,0-.15,0-.15.11s.07.17,1,.68l.87.49a6.86,6.86,0,0,0,3,1.13l.25,0,.28-.08.27-.08.16-.08a2.34,2.34,0,0,1-2.07,1c-.84,0-1.74-.39-3.29-1.45a4.31,4.31,0,0,0-2.41-.95,2.11,2.11,0,0,0-1.49.65,2.32,2.32,0,0,0-.77,1.65,3.48,3.48,0,0,0,1.37,2.67l.19.16.16.09h0c.07,0,.12,0,.12-.1l0-.11-.13-.14-.22-.24-.19-.22a.66.66,0,0,1-.14-.41c0-.14.07-.23.18-.23s.11,0,.26.12a3.9,3.9,0,0,0,.38.19,5.8,5.8,0,0,1,2.5,2c.4.55.53.71.71.82l.22.14.26,0c.06,0,0-.13-.07-.2l-.24-.22c-.08,0-.18-.14-.25-.35a4.75,4.75,0,0,0-.2-.52.64.64,0,0,1-.07-.28c0-.12.06-.19.17-.19a.57.57,0,0,1,.26.09l.44.21.68.33A3.8,3.8,0,0,1,78,382l.27.57.28.36.1.08.13.05c.06,0,.12,0,.12-.09a.48.48,0,0,0-.11-.18,1.38,1.38,0,0,1-.11-.22l-.16-.38,0-.3,0-.17.11-.1.11,0,.33.22a4.48,4.48,0,0,1,2,3.39,2.27,2.27,0,0,1-2.15,2.37,7.72,7.72,0,0,1-2.42-.52l-1.07-.35a4.73,4.73,0,0,0-1.73-.28c-.23,0-.39.07-.39.16a.17.17,0,0,0,.16.17l.25.06a3,3,0,0,1,.46.19l.68.33A3.35,3.35,0,0,1,76.46,390c.36,2,1.34,3,2.91,3h.2l.24,0h.08c.35,0,.67.76.67,1.59,0,.26-.1.43-.25.43l-.2-.05-.41-.14-.22-.08c-.16,0-.22.05-.22.21a.71.71,0,0,0,.33.42l.3.19a1.19,1.19,0,0,1,.52.84l.06.63v.39c0,.42-.16.79-.35.79s-.12-.05-.21-.14l-.16-.16-.09-.09-.13-.1-.12,0a.15.15,0,0,0-.15.16.35.35,0,0,0,0,.17l.16.33.33.58a1.9,1.9,0,0,1,.34,1.13A3.45,3.45,0,0,1,80,401a2.19,2.19,0,0,0-.11.53,4.12,4.12,0,0,0,.11.67,3,3,0,0,1-1.28-1.31l-.27-.82c0-.11-.12-.19-.2-.19s-.21.19-.21.45v0l0,.58V401c0,.76-.35,1.11-1.29,1.32a1.53,1.53,0,0,0-1.06.54l.06-.43A6.72,6.72,0,0,1,77.09,399l.79-1a2.7,2.7,0,0,0,.65-1.62,1.8,1.8,0,0,0-1.22-1.76l-1.15-.41c-1.85-.67-3.18-2.17-4.82-5.49-.45-.9-1.07-1.69-1.34-1.69h-.08l-.14,0,0,.16s0,.07.14.14a1.33,1.33,0,0,1,.24.36l.22.38a2.4,2.4,0,0,1,.27.65,1.13,1.13,0,0,1-.54.28l-.33.08-.22.05-.27,0L69,389l-.28,0a4.74,4.74,0,0,0-1.11.17l-.74.22-.76.24-.38.17-.31,0c-.08,0-.13-.1-.13-.28a.74.74,0,0,1,.06-.27l.08-.27.11-.19,0-.16a.17.17,0,0,0-.18-.18c-.07,0-.13.05-.22.2l-.22.35c-.05.09-.19.35-.4.77l-.39.73a2.84,2.84,0,0,0-.3,1,.5.5,0,0,0,.11.32l.17.19.11.16.08.08a.44.44,0,0,1,.12.28.58.58,0,0,1-.12.3l-.17.22-.19.27-.13.14-.11.11a.24.24,0,0,1-.14,0l-.11,0-.05-.11-.06-.11s-.06-.1-.08-.24a.29.29,0,0,0-.24-.25c-.13,0-.17.09-.17.39v.44a2.72,2.72,0,0,1-.82,1.82c-.17.21-.22.26-.31.26-.24,0-.38-.22-.57-.89-.1-.38-.15-.47-.26-.47s-.23.16-.23.44l0,.36.08.52,0,.18a1.64,1.64,0,0,1-.34.91l-.36.52-.41.36-.19.16-.12,0c-.11,0-.13,0-.23-.29l-.11-.27L59,397l-.1-.08-.11,0c-.07,0-.11.06-.15.2l0,.22,0,.44a3.77,3.77,0,0,1,.06.66,1.6,1.6,0,0,1-.39,1.14l-.52.68a2.24,2.24,0,0,0-.6,1.48,1.92,1.92,0,0,1-.93-1.46,2.06,2.06,0,0,1,.31-.94,1.6,1.6,0,0,0,.08-.2l0-.19,0-.11-.14,0-.11.14-.24.22-.44.41a5.09,5.09,0,0,1-.43.3,1.27,1.27,0,0,0-.55.6c-.26.53-.34.62-.6.68l-.46.11-.55.19a6.66,6.66,0,0,1-.73.22C52.57,399.71,52.72,399.48,54.25,398.69Zm6.41-22.76-.19-.14-.13,0c-.14,0-.24.12-.24.32a1.18,1.18,0,0,0,.15.42l.19.44a3.48,3.48,0,0,0,.3.54l.3.49c.18.3.51.58.69.58s.16-.07.21-.19l.05-.22.11-.41c0-.17.07-.27.08-.3a.94.94,0,0,0,.06-.28.28.28,0,0,0-.07-.17l-.23-.15-.57-.38-.41-.3Zm4.19,0-.13.08-.25.16a2.78,2.78,0,0,1-1,.52c-.27.08-.35.15-.35.3l0,.16.11.36.1.46.17.49,0,.09.1.08h0l.06,0a2.39,2.39,0,0,0,.39-.35,7.06,7.06,0,0,0,.71-1.26,3,3,0,0,0,.26-.89l0-.15-.11-.08Zm-2.15,7.45c.34,0,.67-.27.9-.74a8.42,8.42,0,0,0,.88-2.7c0-.31-.18-.55-.41-.55a.56.56,0,0,0-.34.14,1.47,1.47,0,0,1-1,.3,1.29,1.29,0,0,1-1.15-.36.46.46,0,0,0-.32-.13c-.25,0-.39.17-.39.48a2.74,2.74,0,0,0,.19.88l.35,1C61.77,382.82,62.23,383.41,62.7,383.41Zm.55-2.79h0c.16,0,.23.12.23.39v.05l-.05.41c-.07.32-.1.5-.11.52l-.17.41c-.13.32-.27.44-.54.44s-.46-.41-.6-1.26c0-.06,0-.21-.08-.44l0-.19a.36.36,0,0,1,.35-.33h0l.16,0h.33Z" transform="translate(-47.52 -368.51)" />
    <path class="cls-1" d="M104.86,373.84a1.93,1.93,0,0,1,.33.93,9.86,9.86,0,0,1-.24,1.33,3.71,3.71,0,0,0-.17,1.08,1.2,1.2,0,0,0,.71,1c.18.09.21.14.22.44l0,.54.05.77v.16c0,.12,0,.18-.1.18l0,0-.05-.05-.06-.06-.05-.1-.19-.36-.16-.33a1.62,1.62,0,0,0-1.45-.87h-.38c-.09,0-.13,0-.13.08l0,.06.06.05,0,.05.08.06a3.65,3.65,0,0,1,.6,1.34,3.46,3.46,0,0,0,1.8,2.37c.13.07.18.11.18.18a.23.23,0,0,1-.25.2.83.83,0,0,1-.28-.05,1.61,1.61,0,0,0-.41-.09.3.3,0,0,0-.28.33,3.42,3.42,0,0,0,.88,2l.43.43a1.15,1.15,0,0,0,.33.27l.22.17c.12.09.16.15.16.25s0,.14-.11.14l-.11,0-.13-.08-.08,0-.14-.06-.14-.05-.1,0c-.09,0-.17.13-.17.25a1.53,1.53,0,0,0,0,.3l.14.49a3.75,3.75,0,0,0,1,1.61,2.52,2.52,0,0,0,1.12.57l.3.09.22.05c.07,0,.13,0,.13.06,0,.23-.09.32-.3.32H108l-.19,0h-.09c-.23,0-.4.09-.4.21l0,.12a1.87,1.87,0,0,0,.09.19l.19.41a3.26,3.26,0,0,0,.43.77l.27.3c.12.13.14.14.22.14s.21-.12.27-.31.14-.24.19-.24l.39-.44a2.49,2.49,0,0,1,1.17-.65l.63-.17c.42-.11.54-.21.54-.45a4.31,4.31,0,0,0,0-.56l-.11-.46-.06-.6-.05-.71V387l-.08-.19,0-.08-.11,0h0l-.09,0-.11.11-.13.14a1.21,1.21,0,0,0-.19.24c-.36.5-.6.66-1,.66-1.7,0-2.83-2.17-2.83-5.43,0-.9.07-2.47.16-3.58,0-.54.07-1,.07-1.33A4.18,4.18,0,0,0,104.86,373.84Z" transform="translate(-47.52 -368.51)" />
    <path class="cls-1" d="M108.84,380.28v-.1a1.38,1.38,0,0,0-.42-1,.5.5,0,0,0-.4-.22c-.23,0-.33.17-.36.63,0,.21,0,.49-.08.84-.06.52-.09.83-.09,1s.09.47.21.47a.93.93,0,0,0,.5-.36A2,2,0,0,0,108.84,380.28Z" transform="translate(-47.52 -368.51)" />
    <path class="cls-1" d="M104.89,396.52a3.2,3.2,0,0,1,.49.22,3.35,3.35,0,0,1,.55.49c.49.52.67.64.94.64a2.37,2.37,0,0,0,1.59-.64l.33-.27.27-.22h-.14a2.94,2.94,0,0,1-1.2-.35,2.68,2.68,0,0,0-1.39-.36A2.52,2.52,0,0,0,104.89,396.52Z" transform="translate(-47.52 -368.51)" />
    <path class="cls-1" d="M116.88,397.75a.83.83,0,0,1,.38.33l.14.19.13.16.28.36a.76.76,0,0,0,.76.34h.14l.46-.06.33,0,.21-.06a.64.64,0,0,0,.17-.08l-.14-.33-.63-.6a1.87,1.87,0,0,0-1.88-.33Z" transform="translate(-47.52 -368.51)" />
    <path class="cls-1" d="M116.2,401.93a2,2,0,0,1,.66-.19l.32,0,.38,0,.41,0,.38,0c.21,0,.32-.07.76-.55a2.71,2.71,0,0,1,1.18-.76,4.83,4.83,0,0,0,.92-.47.35.35,0,0,1,.14-.07.07.07,0,0,1,.07.07.26.26,0,0,1-.14.19,2.4,2.4,0,0,0-1,1.75,1.44,1.44,0,0,0,.29,1,2.12,2.12,0,0,1,.87-1.14l.65-.55a2,2,0,0,0,.75-1.66v-.14l0-.28A.18.18,0,0,1,123,399h0l.15.2.06.17.11.16.11.11h0a.82.82,0,0,0,.54-.36c.51-.62.57-.75.57-1.24a1.58,1.58,0,0,0-.14-.65l-.16-.35a.76.76,0,0,1-.06-.25c0-.13.07-.22.17-.22l.08,0,.14.11.11.16c.14.22.29.33.43.33s.27-.08.41-.35l.19-.36a1,1,0,0,0,.11-.3l0-.17c0-.1-.15-.2-.36-.24a1.51,1.51,0,0,1-1.14-1.59l0-.59c0-.22,0-.39.11-.39l.13-.32.08-.36c0-.15.06-.24.06-.25a.46.46,0,0,0-.08-.21,1.2,1.2,0,0,1-.11-.19l-.17-.47-.19-.38-.19-.44c-.13-.29-.34-.51-.48-.51a6,6,0,0,0-.63.3l-.6.3a1.91,1.91,0,0,0-.94,1.75,4.32,4.32,0,0,0,.58,2l.6,1.23a2.78,2.78,0,0,1,.3,1.17c0,1.34-1.26,2.37-3.27,2.65C117.34,399.84,116.85,400.18,116.2,401.93Z" transform="translate(-47.52 -368.51)" />
    <path class="cls-1" d="M126.82,399.88l.17,0,.22-.05h.92l.23,0c.13,0,.2-.08.45-.47l.19-.3c.17-.26.24-.36.44-.63a1.89,1.89,0,0,0-.79-.19A2.09,2.09,0,0,0,126.82,399.88Z" transform="translate(-47.52 -368.51)" />
    <path class="cls-1" d="M106.8,398.68l1.17-.6a12.49,12.49,0,0,0,3.79-3.44,6.08,6.08,0,0,0,1.36-3.34,2,2,0,0,0-.14-.78l-.73-2c-.13,0-.29-.72-.36-1.66l-.08-1.15v-.18c0-1.86.29-2.77.88-2.77l.19,0,.24.11.19.08.21.07c.07,0,.12,0,.12-.08a.29.29,0,0,0-.06-.15l-.11-.17-.24-.52-.49-1-.36-1.36-.16-1.34a2.22,2.22,0,0,1-.19-1,1.59,1.59,0,0,0-.22-.6c0-.1-.13-.17-.18-.17s-.15,0-.15.37l0,.45.06.39,0,.27v.22a.32.32,0,0,1-.13.08h-.08c-.1,0-.21-.11-.41-.39a3.7,3.7,0,0,1-.74-1.88.89.89,0,0,1,1-1,1.19,1.19,0,0,1,.46.17l.24.06,0,0,.08,0,.08-.24v-.28l0-.27v-.07a3.75,3.75,0,0,1,.44-1.24l.11-.22.17.16.29.22.28.25a1.34,1.34,0,0,1,.34.44c.08.22.2.34.31.34s.14-.07.14-.18V374a1.51,1.51,0,0,1,.49-1.06l.33-.36.21-.24.19-.17.17.17.38.35a2,2,0,0,1,.27.41,1.66,1.66,0,0,1,.21.71,2.71,2.71,0,0,1-.1.63,1.44,1.44,0,0,0-.06.27c0,.08,0,.14.09.14s.15-.08.22-.16l.19-.25a1.83,1.83,0,0,1,.27-.3,1.88,1.88,0,0,1,.35-.3l.44-.22.35-.22.11.22.11.3.11.16.08.41,0,.41a.79.79,0,0,0-.09.3c0,.09.07.14.2.14h.22l.41.14a.65.65,0,0,1,.3.24c.37.51.41.59.41.95a2.84,2.84,0,0,1-.41,1.37c-.36.56-.54.75-.73.75s-.2-.06-.2-.21v-.07l.06-.25,0-.35.06-.39v-.17l0-.25a.87.87,0,0,0-.16-.29l-.06,0c-.2,0-.34.66-.46,2.1-.21,2.49-.34,3-.93,3.77l-.19.24-.11.16,0,.16.12,0h0l.16,0,.22-.11.27-.08.2,0c.3,0,.44.13.65.66,0,0,.1.19.24.46l.19.33c.11.17.14.23.14.31s-.23.34-.5.34-.37,0-.75-.54c-.15-.19-.28-.32-.35-.32a.26.26,0,0,0-.12.07l0,.11,0,.35,0,.39,0,.38v.05a1,1,0,0,1-.08.36l-.14.3-.11.11c-.06.06-.09.08-.12.08l-.12,0-.17-.05a1.62,1.62,0,0,1-.54-.74c0-.12-.09-.2-.11-.24l0-.11-.06-.11-.09-.07h0c-.09,0-.13.08-.13.24l-.06.3-.08.44a2.56,2.56,0,0,1-.3.79c-.2.35-.48.6-.67.6s-.22-.09-.47-.6l-.17-.33a2.22,2.22,0,0,1-.11-.41c-.07-.34-.1-.53-.11-.54l0-.33-.06-.22,0-.11h0c-.11,0-.19,0-.21.12l0,.25-.09.19-.16.32-.19.28-.08.16a.68.68,0,0,0-.06.21.18.18,0,0,0,.09.17l.16.11.22.22.3.3a3.07,3.07,0,0,1,.32.47,5.06,5.06,0,0,1,.47.87c.12.3.22.38.44.38s.27-.06.46-.49c.35-.8.87-1.28,1.37-1.28h.32c.31,0,.44-.06.92-.41,1.8-1.33,2.91-1.63,6-1.63a15.82,15.82,0,0,1,5,.7,8.63,8.63,0,0,0,2.49.57,1,1,0,0,0,1-1c0-.79-.6-1.3-2.18-1.86-6.49-2.29-8.54-3.91-8.54-6.73a4.37,4.37,0,0,1,4.56-4.08c1,0,1.38.11,3.27,1a7.89,7.89,0,0,0,2.43.82c.35,0,.64-.22.64-.47l0-.13-.05-.22-.08-.3-.08-.11c-.05,0-.09-.09-.09-.2a.22.22,0,0,1,.21-.24.84.84,0,0,1,.48.27,2.21,2.21,0,0,1,.6,1.44c0,.7-.43,1.06-1.24,1.06a7.75,7.75,0,0,1-2.36-.61l-1.2-.58-1.16-.51a.71.71,0,0,0-.29-.09c-.09,0-.15.05-.15.12s.07.16,1,.68c.3.16.59.32.87.49a7,7,0,0,0,3,1.12l.26,0,.27-.08.27-.09.17-.08a2.33,2.33,0,0,1-2.07,1c-.84,0-1.74-.4-3.3-1.45a4.24,4.24,0,0,0-2.41-1,2.16,2.16,0,0,0-1.49.66,2.33,2.33,0,0,0-.76,1.65,3.49,3.49,0,0,0,1.36,2.66l.19.16.17.1h0c.07,0,.12,0,.12-.1l0-.11-.14-.14-.22-.25-.19-.21a.68.68,0,0,1-.14-.42c0-.14.07-.22.18-.22h.07l.19.11.38.19.63.35.76.44a5.21,5.21,0,0,1,1.12,1.23c.41.57.52.7.71.82l.22.13h.26c.05,0,0-.13-.07-.2l-.25-.22c-.08,0-.18-.15-.24-.36s-.11-.3-.21-.52a.77.77,0,0,1-.07-.27c0-.13.06-.19.17-.19a.72.72,0,0,1,.27.08l.44.22.68.33a3.85,3.85,0,0,1,1.31,1.44l.27.58.27.35.11.08.12.06c.07,0,.12,0,.12-.1a.55.55,0,0,0-.1-.18.91.91,0,0,1-.11-.21l-.17-.39,0-.3,0-.16.11-.11.11,0,.32.22a4.49,4.49,0,0,1,2,3.37,2.25,2.25,0,0,1-2.17,2.39,7.78,7.78,0,0,1-2.41-.52l-1.06-.36a5,5,0,0,0-1.73-.27c-.24,0-.4.06-.4.16a.18.18,0,0,0,.17.17l.24.05a3,3,0,0,1,.47.19l.68.33A3.37,3.37,0,0,1,129,390c.37,2,1.35,3,2.93,3l.21,0,.24,0h.07c.31,0,.38.11.53.85l.11.52,0,.17c0,.35-.07.49-.24.49a.69.69,0,0,1-.21-.06l-.39-.13-.21-.08c-.2,0-.25,0-.25.2a.65.65,0,0,0,.33.42l.3.19c.4.26.6.83.6,1.7,0,.53-.16,1-.37,1a.43.43,0,0,1-.21-.14l-.16-.16-.08-.08-.14-.11-.11,0a.16.16,0,0,0-.16.16.38.38,0,0,0,.06.18l.16.33.33.57a2.49,2.49,0,0,1,.36,1.21,2.94,2.94,0,0,1-.15.87,2,2,0,0,0-.11.52,4.17,4.17,0,0,0,.11.68,3,3,0,0,1-1.28-1.31L131,400c0-.11-.12-.19-.19-.19s-.22.19-.22.44v.05l0,.57V401c0,.76-.34,1.12-1.28,1.32a1.51,1.51,0,0,0-1.06.55l0-.44a6.81,6.81,0,0,1,1.28-3.38l.79-1a2.72,2.72,0,0,0,.66-1.63,1.82,1.82,0,0,0-1.23-1.76l-1.15-.41c-1.85-.66-3.17-2.17-4.82-5.48-.44-.9-1.07-1.7-1.33-1.7h-.08l-.14,0,0,.16.16.14.22.35.24.38a1.9,1.9,0,0,1,.14.33c0,.08.06.18.11.33a1.14,1.14,0,0,1-.55.27l-.32.08-.22.06-.27,0-.36-.08-.28,0a4.82,4.82,0,0,0-1.11.17l-.73.21-.77.25-.38.16-.3,0c-.09,0-.14-.1-.14-.28a.69.69,0,0,1,.06-.26l.08-.28.11-.19,0-.16a.16.16,0,0,0-.17-.17c-.08,0-.13.05-.22.19l-.22.36c-.06.09-.19.34-.41.76l-.38.74a2.78,2.78,0,0,0-.3,1,.47.47,0,0,0,.11.31l.16.19.11.17.08.08a.39.39,0,0,1,.12.27.48.48,0,0,1-.12.3l-.16.22-.19.27-.14.14-.11.11a.16.16,0,0,1-.13.06l-.11,0-.06-.11,0-.11-.06-.25-.08-.13,0-.06a.17.17,0,0,0-.14-.05c-.15,0-.19.08-.19.38v.44a2.71,2.71,0,0,1-.82,1.83c-.17.21-.22.25-.3.25-.25,0-.39-.21-.57-.88-.11-.38-.16-.48-.27-.48s-.22.16-.22.45l0,.36.08.52v.17a1.66,1.66,0,0,1-.34.92l-.35.52-.41.35-.19.16-.13,0c-.1,0-.12,0-.23-.28l-.11-.27-.08-.33-.09-.08-.11-.05c-.07,0-.12.06-.15.21l-.06.22,0,.43a3.88,3.88,0,0,1,.06.67,1.6,1.6,0,0,1-.39,1.14l-.51.68a2.34,2.34,0,0,0-.6,1.47,2,2,0,0,1-.94-1.45c0-.27,0-.35.31-1a1,1,0,0,0,.12-.39c0-.08,0-.12-.07-.12l-.11.05-.1.13-.25.22-.44.41a3.72,3.72,0,0,1-.43.3,1.32,1.32,0,0,0-.55.6c-.25.53-.33.62-.6.68l-.46.11-.54.19a4.14,4.14,0,0,1-.74.22C105.12,399.7,105.26,399.47,106.8,398.68Zm6.48-21.21s.14.3.3.49l.3.36a.68.68,0,0,0,.4.21c.08,0,.16-.07.2-.19l.06-.21.11-.42c0-.17.07-.27.08-.3a1.18,1.18,0,0,0,0-.29c0-.12-.07-.19-.3-.31l-.57-.38-.41-.3-.27-.22a.59.59,0,0,0-.35-.16c-.14,0-.2.09-.2.3a1.1,1.1,0,0,0,.11.44l.22.43Zm4.12-1.53-.14.08a1.46,1.46,0,0,0-.24.17,3,3,0,0,1-1,.52c-.27.08-.36.15-.36.29l0,.17.11.35.11.47.16.49,0,.08.11.08h0l.07,0a2.25,2.25,0,0,0,.38-.36,6,6,0,0,0,.71-1.26,3,3,0,0,0,.26-.88l0-.15-.11-.08Zm-2.15,7.45a1.11,1.11,0,0,0,.89-.73A8.25,8.25,0,0,0,117,380c0-.31-.18-.55-.41-.55a.56.56,0,0,0-.33.13,1.5,1.5,0,0,1-1,.3c-.66,0-.72,0-1.15-.35a.44.44,0,0,0-.31-.14c-.26,0-.4.17-.4.49a3.11,3.11,0,0,0,.19.88l.36,1C114.31,382.8,114.78,383.39,115.25,383.39Zm.54-2.78h0c.16,0,.21.1.21.43a2.08,2.08,0,0,1-.06.42l-.11.51-.16.41c-.13.33-.27.44-.55.44s-.45-.4-.6-1.26c0-.06,0-.2-.08-.43l0-.2a.37.37,0,0,1,.35-.33h0l.17,0h.43Z" transform="translate(-47.52 -368.51)" />
    <path class="cls-1" d="M53.24,427v.18a2.09,2.09,0,0,1-.06.58s0,.19-.13.44a2.22,2.22,0,0,0,.21,2c.27.46.31.54.31.81s-.07.35-.25.35-.07,0-.14-.1a1.91,1.91,0,0,0-1.31-.49l-.38,0a3.46,3.46,0,0,1,.41.9l.19.65a3.17,3.17,0,0,0,1.28,1.59c.34.23.39.26.39.34s-.1.1-.23.1h-.1l-.3-.05a.85.85,0,0,0-.23-.06c-.12,0-.19.1-.19.26a4.11,4.11,0,0,0,.42,1.27c.37.89.64,1.21,1.28,1.48.27.11.38.2.38.31s0,.13-.22.15-.41.11-.41.24,0,.2.06.2l.05.16a2.57,2.57,0,0,0,2.59,1.94h.07c.13,0,.18,0,.18.11a.26.26,0,0,1-.11.16,1.14,1.14,0,0,1-.49.19c-.23,0-.3.08-.3.21a1.33,1.33,0,0,0,.38.72l.24.28c.21.22.31.29.4.29s.22-.07.45-.27a5.14,5.14,0,0,1,1.66-1c.58-.19.76-.33.76-.54a.54.54,0,0,0-.08-.25,5.68,5.68,0,0,1-.49-1.36l-.13-.66-.11-.38-.06-.16-.11-.06h0l-.11,0-.09.14-.13.22-.14.3a1.29,1.29,0,0,1-1,.68c-.84,0-1.89-1.42-2.77-3.74a7.13,7.13,0,0,1-.4-2.31,5.21,5.21,0,0,1,.13-1.16l.33-1.36a3,3,0,0,0,.07-.67A2.84,2.84,0,0,0,53.24,427Z" transform="translate(-47.52 -368.51)" />
    <path class="cls-1" d="M55.66,433.56,56,433a2.32,2.32,0,0,0,.33-.8.77.77,0,0,0-.19-.43q-.26-.33-.45-.33c-.34,0-.61.7-.61,1.56v.57c0,.35.09.6.23.6h0l.15-.15Z" transform="translate(-47.52 -368.51)" />
    <path class="cls-1" d="M58.93,445.27a.44.44,0,0,1,.41.22l.16.22.19.25c.29.36.41.43.75.43a2.7,2.7,0,0,0,1.63-.68l-.2-.11a1.64,1.64,0,0,1-.27-.17l-.32-.27a1.64,1.64,0,0,0-1.06-.41A1.9,1.9,0,0,0,58.93,445.27Z" transform="translate(-47.52 -368.51)" />
    <path class="cls-1" d="M66.23,451l.33,0a.72.72,0,0,1,.27.08l.3.22a1.72,1.72,0,0,0,.85.19,2,2,0,0,0,1-.3l.49-.22.44-.24-.3-.11-.49-.19a3.6,3.6,0,0,0-1.34-.3C67.28,450.16,67.05,450.28,66.23,451Z" transform="translate(-47.52 -368.51)" />
    <path class="cls-1" d="M66.7,454.83a1.29,1.29,0,0,1,.73-.22c.68-.07,1.32-.33,1.39-.58l.11-.35a1.82,1.82,0,0,1,.46-.68.71.71,0,0,1,.42-.25c.08,0,.13,0,.13.1l0,.09-.08.17a2.43,2.43,0,0,0-.22.92,2.27,2.27,0,0,0,.33,1.12l.16.36a3,3,0,0,1,.55-.77,2.71,2.71,0,0,0,.95-2.17l0-.45V452c0-.14.07-.21.18-.21s.15.05.22.22l.08.22c.08.23.12.27.2.27s.44-.33.64-.71a2.14,2.14,0,0,0,.17-1l0-.27-.08-.24v-.06a.21.21,0,0,1,.2-.22c.11,0,.24.12.32.3s.13.25.23.25.23-.07.37-.27l.22-.3c.16-.22.23-.34.23-.43s0-.1-.15-.2c-.79-.71-1-1.28-1.06-2.92A3.68,3.68,0,0,0,73,445l-.41-1-.22-.74-.19-.57c-.1-.3-.16-.39-.31-.39l-.12,0-.22.11-.46.17a1.62,1.62,0,0,0-.82,1.58,2.7,2.7,0,0,0,.22,1l.65,1.61a6.65,6.65,0,0,1,.63,2.41c0,.93-.52,1.57-1.75,2.12-.79.36-1.32.6-1.58.74a2.49,2.49,0,0,0-.9.76A5.44,5.44,0,0,0,66.7,454.83Z" transform="translate(-47.52 -368.51)" />
    <path class="cls-1" d="M74.08,457a1.66,1.66,0,0,1,1.09-.52c.77-.1,1-.31,1.25-1l.25-.77.22-.68.11-.38-.38.22-.33.22a5.35,5.35,0,0,1-.57.22,2.25,2.25,0,0,0-1.67,2.25Z" transform="translate(-47.52 -368.51)" />
    <path class="cls-1" d="M104.57,426.84a4,4,0,0,1,.13.86,3.66,3.66,0,0,1-.08.64l0,.48a2.25,2.25,0,0,0,.45,1.24c.42.62.47.74.47,1.09s-.06.31-.19.31a.26.26,0,0,1-.17-.11l-.22-.27a2.2,2.2,0,0,0-1.58-.61,3.54,3.54,0,0,1,.52,1.48,2.48,2.48,0,0,0,1,1.64l.33.27a1,1,0,0,1,.3.37l0,.09a.14.14,0,0,1-.11.09h0l-.16,0-.2,0c-.27,0-.37.14-.37.5a2.62,2.62,0,0,0,.85,1.79.41.41,0,0,1,.14.24.16.16,0,0,1-.16.15,1.12,1.12,0,0,1-.42-.14.46.46,0,0,0-.18-.06c-.14,0-.2.09-.2.28a2.44,2.44,0,0,0,1.14,2.32l.41.19.25.14c.1.05.14.09.14.12s-.16.17-.36.17l-.14,0-.27-.11-.19,0c-.2,0-.33.08-.33.23a1.1,1.1,0,0,0,.06.32,6,6,0,0,1,.16.84c.06.46.19.66.43.66a1.26,1.26,0,0,0,.5-.17,4,4,0,0,1,1.88-.49h.6l.43,0,.26,0c.15,0,.23-.11.26-.37l.08-.62a8,8,0,0,0,.08-.88L110,439l0-.27-.08-.11,0,0c-.08,0-.13,0-.3.13a2.63,2.63,0,0,1-1.24.41c-1.49,0-2.12-1.51-2.12-5.12a29.66,29.66,0,0,1,.17-3.29,13.1,13.1,0,0,0,.14-1.49A2.46,2.46,0,0,0,104.57,426.84Z" transform="translate(-47.52 -368.51)" />
    <path class="cls-1" d="M107.87,431.65l-.22-.3c-.16-.21-.23-.28-.32-.28s-.23.15-.26.44,0,.36-.08.63c-.1.7-.12.81-.12.92s.08.45.19.45.32-.19.51-.44a1.64,1.64,0,0,0,.41-1A.78.78,0,0,0,107.87,431.65Z" transform="translate(-47.52 -368.51)" />
    <path class="cls-1" d="M104.57,446.28a1,1,0,0,1,.82.52,1,1,0,0,0,1,.57A3.08,3.08,0,0,0,108,447a2.85,2.85,0,0,0-2-1.09A2.58,2.58,0,0,0,104.57,446.28Z" transform="translate(-47.52 -368.51)" />
    <path class="cls-1" d="M109.12,455.1l3.29-2-.43-.08-.33-.08a4.84,4.84,0,0,0-1.14-.17,1.46,1.46,0,0,0-1.48,1.66A3.5,3.5,0,0,0,109.12,455.1Z" transform="translate(-47.52 -368.51)" />
    <path class="cls-1" d="M107.57,458.51a2,2,0,0,1,.9-.3l.48,0h.13c.65,0,1.07-.37,1.37-1.2l.22-.61a1.51,1.51,0,0,1,.63-.73l.3-.19a.22.22,0,0,1,.14-.06c.05,0,.08,0,.08.06v.08l0,.13s-.06.19-.16.47a1.42,1.42,0,0,0-.11.55,2.24,2.24,0,0,0,.24.92l.25-.19c1.39-1.08,1.51-1.26,1.55-2.29,0-.87.07-1,.24-1s.14.08.22.24c.18.34.22.39.33.39a1.25,1.25,0,0,0,.73-.55,1.74,1.74,0,0,0,.42-1.23v-.27c0-.19.06-.3.16-.3a.21.21,0,0,1,.12.05.34.34,0,0,1,.08.14l.05.27.06.25c.05.26.11.33.24.33s.3-.16.77-.74a1,1,0,0,0,.27-.56,1.51,1.51,0,0,0-.06-.34,1.65,1.65,0,0,1-.05-.33c0-.17.09-.27.23-.27s.21.08.29.3.18.38.28.38a1.34,1.34,0,0,0,.53-.38,1,1,0,0,0,.35-.68,1.2,1.2,0,0,0-.24-.55,4,4,0,0,1-.49-1.78c0-.92.29-1.63,1.36-3.3s1.31-2.07,1.31-2.24a1.41,1.41,0,0,0-.19-.4l-.13-.25a.19.19,0,0,0-.16-.11.7.7,0,0,0-.2.08.68.68,0,0,1-.19.08l-.16.06h0c-.11,0-.21-.07-.3-.22-.25-.4-.36-.47-.72-.47s-.83.19-.83.39v.33c0,.44-.29.81-1,1.31a3.09,3.09,0,0,0-1.58,2.62,4,4,0,0,0,.38,1.61l.41.84a1.56,1.56,0,0,1,.14.66c0,1.67-1.7,3.22-6.16,5.62C108,456.25,107.73,456.59,107.57,458.51Z" transform="translate(-47.52 -368.51)" />
    <path class="cls-1" d="M121.13,447.51a1.3,1.3,0,0,1,1.13-.57c.24,0,.41,0,.45-.09l.28-.3.32-.3.41-.38c.25-.23.26-.25.26-.31s-.06-.1-.2-.1l-.3,0-.4,0C122,445.4,121.24,446.19,121.13,447.51Z" transform="translate(-47.52 -368.51)" />
    <path class="cls-1" d="M106.42,448c3.39-1.16,4.61-2.33,4.61-4.46a4.86,4.86,0,0,0-.2-1.14,7.26,7.26,0,0,1-.34-2l0-.44.13-1.88c.17-2.31.36-2.89.91-2.89l.18,0a1.2,1.2,0,0,1,.3.11l.17.11h.15s.06-.06.06-.13a.19.19,0,0,0-.08-.14l-.27-.25c-.11,0-.26-.18-.38-.46l-.52-1.2a17.2,17.2,0,0,1-.33-1.91c-.15-1.07-.37-1.63-.66-1.63a.16.16,0,0,0-.15.18,1,1,0,0,0,0,.27,2.28,2.28,0,0,1,.08.41l0,.36,0,.22c0,.11-.05.17-.1.17a1.42,1.42,0,0,1-.52-.42,3.31,3.31,0,0,1-.87-1.89.86.86,0,0,1,.83-.92.94.94,0,0,1,.36.08l.3.14.3.13.15.06c.12,0,.12,0,.13-.55l0-.46a4.23,4.23,0,0,1,.11-.55l.14-.44,0-.3a3.19,3.19,0,0,1,1.23.93l.13.19a.22.22,0,0,0,.14.09c.08,0,.11-.05.11-.16v-.06l-.06-.36v-.11a2.6,2.6,0,0,1,.64-1.52l.22-.22.22-.25c.73,1,.86,1.28.86,2l0,.13-.08.27,0,.16,0,.11c0,.06.06.09.1.09s.23-.12.42-.36a3.79,3.79,0,0,1,.35-.41l.46-.35a4.19,4.19,0,0,0,.33-.28,4.38,4.38,0,0,0,.27.82,2,2,0,0,1,.22,1.08v.15a.19.19,0,0,0,.11.11l.11,0a.75.75,0,0,0,.24-.06l.22,0a.66.66,0,0,1,.46.2,1.7,1.7,0,0,1,.5,1,2.89,2.89,0,0,1-.47,1.17c-.24.38-.53.63-.72.63s-.14,0-.14-.12l0-.13,0-.27.06-.33a4,4,0,0,0,0-.43c0-.12,0-.17-.15-.17-.36,0-.7.95-.83,2.29a3.57,3.57,0,0,1-.87,2.48l-.46.5s-.07.05-.14.13a.24.24,0,0,0-.06.15.12.12,0,0,0,.13.1l.17-.05.3-.11.3-.11.2,0c.24,0,.29,0,.4.31l.17.38.22.55.29.49.2.24a.79.79,0,0,1,.11.3c0,.17-.24.33-.49.33a.86.86,0,0,1-.58-.24l-.31-.4c0-.06-.1-.1-.14-.1s-.16.23-.18.53c0,.79-.26,1.28-.6,1.28s-.79-.58-.87-1.39c0-.31-.09-.46-.21-.46s-.15.1-.17.24l0,.49c-.1.85-.5,1.5-.92,1.5s-.66-.55-.66-1.42l0-.46,0-.35c0-.16-.08-.28-.19-.28s-.35.49-.35,1.3a4.8,4.8,0,0,0,.11,1.07c.17.85.68,1.64,1,1.64.14,0,.19-.06.56-.54a1.18,1.18,0,0,1,.87-.58,1.71,1.71,0,0,1,.9.27.42.42,0,0,0,.22.09c.1,0,.23-.12.52-.5.91-1.17,2.75-1.82,5.12-1.82a16,16,0,0,1,4.31.57l1.85.57a3.28,3.28,0,0,0,1,.16c.91,0,1.44-.38,1.44-1,0-.89-.85-1.54-3-2.28-4.89-1.7-6.44-3.05-6.44-5.58,0-2.27,2.06-4,4.75-4,1.11,0,1.9.22,4.91,1.34a2.79,2.79,0,0,0,1,.22.6.6,0,0,0,.57-.65l0-.17-.09-.16,0-.12a.19.19,0,0,1,.21-.21c.17,0,.32.13.44.38a2.05,2.05,0,0,1,.2.81,1.29,1.29,0,0,1-1.35,1.29,5.75,5.75,0,0,1-2.56-.81,9.67,9.67,0,0,0-2.81-1c-.22,0-.35.05-.35.15s.07.14.22.16a2.67,2.67,0,0,1,.52.19l.79.36a10.53,10.53,0,0,1,1.28.71,4.42,4.42,0,0,0,2.44.87,2.66,2.66,0,0,0,.48-.05,1.61,1.61,0,0,1-1.32.7A7.25,7.25,0,0,1,126,429c-.82-.5-1.32-.79-1.5-.88a2.67,2.67,0,0,0-1.12-.21,2.26,2.26,0,0,0-2.24,2.23,2.85,2.85,0,0,0,1,2.1l.63.44.19.14a.33.33,0,0,0,.16.05.14.14,0,0,0,.14-.14.41.41,0,0,0-.11-.21.72.72,0,0,1-.13-.38c0-.11.05-.17.15-.17a1.06,1.06,0,0,1,.39.11l.65.3a3.25,3.25,0,0,1,.74.55,3.75,3.75,0,0,1,.76.9c.13.21.2.27.33.27s.14,0,.14-.12a.6.6,0,0,0-.09-.24l-.16-.3-.3-.49,0-.13,0-.2c0-.09.1-.16.23-.16,1,0,2.21,1,2.93,2.59.1.22.14.28.2.28s.06,0,.1-.06a.15.15,0,0,0,0-.13.59.59,0,0,0,0-.22,2.7,2.7,0,0,1-.14-.63c0-.1,0-.13.11-.13s.23.07.47.24l.54.41a4.05,4.05,0,0,1,.87,2.73,2.68,2.68,0,0,1-2.81,2.54,9.29,9.29,0,0,1-3-.66l-1.15-.43a1.74,1.74,0,0,0-.49-.12c-.13,0-.19.05-.19.15s.06.16.27.21a2.52,2.52,0,0,1,1.26,1c.53.66.86,1.06,1,1.2a2.61,2.61,0,0,0,1.66.87c.68.14.79.21.79.49a1,1,0,0,1-.08.36l-.17.35c-.1.22-.19.3-.33.3a.42.42,0,0,1-.29-.14l-.17-.16a.28.28,0,0,0-.2-.08c-.14,0-.18.05-.18.21a.36.36,0,0,0,.08.23l.22.24a.57.57,0,0,1,.17.36,2.68,2.68,0,0,1-.33.92c-.07.14-.13.2-.2.2a1.09,1.09,0,0,1-.43-.22.22.22,0,0,0-.12-.06.2.2,0,0,0-.18.21,1,1,0,0,0,.11.34,2.07,2.07,0,0,1,.22.86,1.22,1.22,0,0,1-.14.56l-.32.63-.28.54c-.1.2-.16.34-.19.41l0,.19a2.12,2.12,0,0,1-.46-1.45c0-.2-.07-.27-.21-.27s-.48.38-.48.79v.47a.72.72,0,0,1-.24.52l-.52.46a3.22,3.22,0,0,0-.65.79,5.46,5.46,0,0,1-.36-1.79,2.43,2.43,0,0,1,1.2-1.95c1.29-.93,1.75-1.65,1.75-2.71,0-.46-.32-.66-1.28-.81a3.25,3.25,0,0,1-2.43-1.77l-.44-.77c-.36-.63-.48-.79-.63-.79a.19.19,0,0,0-.16.19.66.66,0,0,0,.06.22,1.91,1.91,0,0,1,.14.61c0,.16,0,.21-.22.21a2.48,2.48,0,0,1-1-.27,1.66,1.66,0,0,0-.6-.14c-.3,0-.55.1-1.2.52a7.24,7.24,0,0,1-2.59,1.31c-.37,0-.62-.19-.62-.48l0-.2.08-.3v-.08c0-.13-.08-.22-.17-.22s-.21.12-.31.41a4,4,0,0,1-.21.51,2.08,2.08,0,0,0-.36,1.12,1.85,1.85,0,0,0,.3,1,.53.53,0,0,1,.09.26,1.8,1.8,0,0,1-.33.78c-.18.24-.41.44-.51.44a.24.24,0,0,1-.17-.14l-.17-.25-.22-.3-.11-.16a.18.18,0,0,0-.16-.08.2.2,0,0,0-.2.22,1,1,0,0,0,.12.32,3,3,0,0,1,.11.3,1.68,1.68,0,0,1,.09.44,1.44,1.44,0,0,1-.25.77,2.61,2.61,0,0,1-.33.35c-.19.17-.27.23-.35.23s-.23-.09-.33-.31-.15-.22-.25-.22a.13.13,0,0,0-.14.15V447l0,.35a1.54,1.54,0,0,1-.6,1.35l-.27.19-.27.13h0c-.09,0-.14-.08-.17-.31s-.14-.3-.24-.3-.17.15-.17.36v.26a2.06,2.06,0,0,1-.63,1.43l-.57.65-.27.44a1.59,1.59,0,0,1-.36-1.05,2.2,2.2,0,0,1,.39-1.27l.1-.22v-.13l-.06,0c-.28,0-.58.26-1,.82a1.23,1.23,0,0,1-.85.57l-.65.11a2.49,2.49,0,0,0-.9.33C104.39,449.12,104.84,448.56,106.42,448ZM113.18,430l0-.28c0-.26,0-.29-.14-.32l-.19-.06a3.18,3.18,0,0,1-.47-.22l-.38-.19-.35-.22-.2-.08q-.12,0-.12.18a1.11,1.11,0,0,0,.07.31l.2.49a3.09,3.09,0,0,0,.92,1.23.6.6,0,0,0,.28.14.18.18,0,0,0,.18-.17l.06-.38Zm2.83-1.18c0-.07-.08-.13-.18-.13l-.17.05-.44.27a3.1,3.1,0,0,1-.9.36c-.29.08-.34.1-.34.19l0,.14a5.63,5.63,0,0,1,.13.84c0,.47.07.55.27.55s.52-.32,1.15-1.34l.35-.57C116,428.9,116,428.78,116,428.78Zm-3.78,2.87a.43.43,0,0,0-.36.46,5.78,5.78,0,0,0,.6,1.78c.3.68.74,1.11,1.14,1.11s.77-.39,1.07-1a5.68,5.68,0,0,0,.6-1.81.37.37,0,0,0-.36-.38c-.09,0-.15,0-.57.2a1.61,1.61,0,0,1-.67.14,1.57,1.57,0,0,1-.88-.23l-.3-.16A.67.67,0,0,0,112.23,431.65Zm1.42,2.81a.49.49,0,0,1-.34-.25,2.71,2.71,0,0,1-.3-1.13c0-.23.08-.35.23-.35h.07l.11,0,.3,0h.17l.16,0c.11,0,.19.12.19.27l0,.22-.11.41C113.92,434.37,113.87,434.46,113.65,434.46Z" transform="translate(-47.52 -368.51)" />
    <path class="cls-1" d="M59.2,449c.22-1.2.5-1.61,1.29-1.91l1-.38,1.2-.6A2.59,2.59,0,0,0,64.27,444c0-.85-.36-1.33-1.8-2.38a6.16,6.16,0,0,1-2.83-4.92c0-.81.34-1.25,1-1.25a1.29,1.29,0,0,1,.53.11c.18.09.22.1.27.1a.15.15,0,0,0,.17-.14s0-.06-.11-.15l-.24-.24-.57-.55c-.57-.54-.89-1.63-1.07-3.63a2.78,2.78,0,0,0-.16-.82l-.16-.35c-.07-.15-.12-.2-.21-.2s-.15.1-.15.21l0,.21,0,.43,0,.37c0,.14-.06.26-.14.26s-.54-.3-.87-.76a2.47,2.47,0,0,1-.57-1.34.78.78,0,0,1,.83-.86,1.28,1.28,0,0,1,.48.09l.19.08.11,0a.12.12,0,0,0,.14-.13l0-.2v-.54l0-.55.14-.57.08-.41a4.47,4.47,0,0,1,.65.49l.44.41.3.25.14.16a.19.19,0,0,0,.16.09c.09,0,.14-.1.14-.3v-.27a3.81,3.81,0,0,1,.85-2l.24.28.28.27a2.42,2.42,0,0,1,.51,1.42c0,.26.07.36.22.36s.19-.05.44-.36a1.64,1.64,0,0,1,.33-.3l.4-.3c.13-.1.23-.18.55-.47a5.26,5.26,0,0,0,.16.71,2.48,2.48,0,0,1,.12.71v.3l0,.4c0,.25.1.4.27.4h.06l.27-.08.24,0a.94.94,0,0,1,.88,1,3.88,3.88,0,0,1-.6,1.56c-.14.25-.23.34-.33.34s-.13,0-.13-.26V430l0-.36v-.19s0-.08-.11-.08-.18.07-.22.27a4.89,4.89,0,0,1-.13.52,8.42,8.42,0,0,0-.22,1.23c-.27,2.27-.49,3-1.06,3.52a3.33,3.33,0,0,0-.3.28.19.19,0,0,0-.07.15c0,.08.06.12.17.12a1.14,1.14,0,0,0,.47-.14l.25-.13a.52.52,0,0,1,.29-.09c.24,0,.38.15.5.52a2.19,2.19,0,0,0,.16.41c.07.14.16.29.27.47l.27.41.19.21a.46.46,0,0,1,.1.34v.05a.53.53,0,0,1-.17.16.5.5,0,0,1-.26.08.77.77,0,0,1-.26-.05,1.33,1.33,0,0,1-.59-.3l-.17-.19-.2-.09c-.06,0-.1.07-.1.18l0,.21,0,.18,0,.25a3.25,3.25,0,0,1-.27,1,.92.92,0,0,1-.14.13c-.09.07-.13.09-.18.09-.33,0-.75-.6-1-1.45-.13-.43-.22-.57-.34-.57s-.13.12-.23.43c-.2.63-.51,1-.79,1a.5.5,0,0,1-.33-.19,2.34,2.34,0,0,1-.49-1l-.08-.43c-.05-.29-.11-.39-.22-.39s-.2.11-.2.4v.18l0,.32a8.15,8.15,0,0,0,.38,1.31c.23.64.61,1.15.86,1.15.09,0,.2-.05.45-.22a1.33,1.33,0,0,1,.8-.3,1.62,1.62,0,0,1,1.21.77c.1.13.13.16.2.16s.09,0,.13-.14l.14-.3c.65-1.44,2.71-2.29,5.51-2.29a15.92,15.92,0,0,1,4.51.74,10.18,10.18,0,0,0,3.36.65c1,0,1.71-.53,1.71-1.35s-.62-1.25-3.76-1.92c-5.57-1.2-7.53-2.73-7.53-5.9A4.3,4.3,0,0,1,73,425.67c1.36,0,2.24.38,4.15,1.77a4.29,4.29,0,0,0,2,1.05.85.85,0,0,0,.81-.8v-.08l0-.19v-.07c0-.11.07-.21.15-.21a.47.47,0,0,1,.32.22,1.82,1.82,0,0,1,.33.89,1.48,1.48,0,0,1-1.49,1.3c-.78,0-1.19-.18-2.68-1.18a7.51,7.51,0,0,0-3.72-1.61c-.2,0-.25,0-.25.13s.09.16.4.26a6.81,6.81,0,0,1,2.56,1.25l1.12.88a4.42,4.42,0,0,0,.9.49,3,3,0,0,0,.82.24l.3,0,.21,0h0l.23,0,.24-.05a1.87,1.87,0,0,1-1.5.73,3.11,3.11,0,0,1-1.74-.71l-1.28-.84a3.79,3.79,0,0,1-1.23-.77,2.76,2.76,0,0,0-1.71-.55,2.14,2.14,0,0,0-2.29,2.08c0,1.12.37,1.8,1.6,2.87a2.76,2.76,0,0,0,1.12.68.12.12,0,0,0,.14-.13s-.08-.13-.25-.25a.64.64,0,0,1-.33-.53c0-.11.18-.19.4-.19l.31,0A2.7,2.7,0,0,1,74,433l.6.63.62.62.25.22a.17.17,0,0,0,.12.06.22.22,0,0,0,.15-.11l0-.1c0-.09,0-.13-.33-.5s-.31-.41-.31-.53.19-.21.43-.21c1,0,1.74.47,2.77,1.72.21.25.29.33.36.33s.12-.06.12-.15a.64.64,0,0,0-.07-.24l-.17-.27,0-.23c0-.07.07-.12.16-.12a.6.6,0,0,1,.27.11l.49.3a4,4,0,0,1,1.72,3.16,2.72,2.72,0,0,1-2.85,2.77,5.16,5.16,0,0,1-1.89-.39l-1.12-.44a1.28,1.28,0,0,1-.52-.16.68.68,0,0,0-.33-.09c-.12,0-.19,0-.19.1s.15.2.39.29a3.4,3.4,0,0,1,2.07,2.54l.43,1.8c.46,1.88,1.41,2.92,2.66,2.92H80c.18,0,.23.06.25.33l.06.57,0,.81c0,1-.08,1.29-.36,1.29a.74.74,0,0,1-.41-.16.81.81,0,0,0-.42-.2s-.1.07-.1.15.1.24.47.6a2,2,0,0,1,.69,1.52v.17l-.08.71-.06.27c0,.07,0,.11-.11.11a.56.56,0,0,1-.35-.22c-.3-.31-.35-.35-.47-.35a.15.15,0,0,0-.16.16.35.35,0,0,0,.11.19,4.4,4.4,0,0,1,1.06,3,2.78,2.78,0,0,0,.11.85,2.4,2.4,0,0,1-1.25-1c-.24-.37-.29-.41-.43-.41a.13.13,0,0,0-.15.13v.22l0,.38a2.15,2.15,0,0,0,.14.44,3,3,0,0,1,.19.89,2.87,2.87,0,0,1-.71,1.65,1.64,1.64,0,0,0-.49.85,4.43,4.43,0,0,1-1-2.77,4.12,4.12,0,0,1,.22-1.36l.49-1.44a13.19,13.19,0,0,0,.76-3.77c0-1.67-.35-2.53-1.25-3.06l-1.26-.73a4,4,0,0,1-1.88-2.27l-.65-1.75c-.6-1.6-1.42-3-1.74-3a.13.13,0,0,0-.14.15c0,.11,0,.22.3.56a.53.53,0,0,1,.11.27.33.33,0,0,1-.36.28L71,441a1.86,1.86,0,0,1-.41-.11l-.41-.19-.43-.08a1.6,1.6,0,0,0-.5.08l-.73.19a5.38,5.38,0,0,0-.74.25c-.38.15-.42.16-.52.16S67,441.23,67,441a3.34,3.34,0,0,1,.09-.62,2.64,2.64,0,0,0,0-.36c0-.16-.08-.28-.19-.28s-.17.09-.22.29a2,2,0,0,1-.08.27l-.16.47a3.88,3.88,0,0,0-.22,1,1.49,1.49,0,0,0,.38.88l.3.41.35.33.09.14.08.13v.07a1.07,1.07,0,0,1-.29.56l-.3.36-.16.19a.24.24,0,0,1-.14.05.34.34,0,0,1-.19-.08l-.16-.14-.14-.08a.36.36,0,0,0-.13-.05c-.07,0-.11.05-.11.14a.49.49,0,0,0,.05.19.62.62,0,0,1,.14.43,2.12,2.12,0,0,1-.3,1c-.31.52-.39.62-.52.62a.14.14,0,0,1-.13-.11l-.06-.19-.16-.25-.06-.1s-.08-.06-.17-.06-.16.07-.16.24v.14l0,.41a4.23,4.23,0,0,1-1.12,2.73c-.4.53-.43.6-.47.9-.51-.8-.54-.89-.54-1.47a2.76,2.76,0,0,1,0-.54l.14-.55a1.61,1.61,0,0,0,.06-.34c0-.08,0-.13-.11-.13a.37.37,0,0,0-.2.09,1.09,1.09,0,0,1-.19.1c-.28.15-.32.18-.4.42a1.45,1.45,0,0,1-1.34,1.09l-.52,0a1.32,1.32,0,0,0-.81.32Zm4.21-16.9a2,2,0,0,1-.86.25,2.52,2.52,0,0,1-1-.28,1.05,1.05,0,0,0-.49-.14c-.3,0-.44.17-.44.5a2.7,2.7,0,0,0,.55,1.42c.5.8,1,1.23,1.38,1.23a.79.79,0,0,0,.55-.28,3.6,3.6,0,0,0,1.14-2.31c0-.37-.14-.58-.38-.58S63.72,431.93,63.41,432.11Zm-1.36,2.13c0-.08-.06-.21-.11-.38a2.1,2.1,0,0,1-.09-.49c0-.23.1-.39.26-.39l.16,0,.18,0,.2,0,.22,0c.16,0,.22.07.22.25l0,.27-.06.33c-.07.57-.21.79-.5.79A.55.55,0,0,1,62.05,434.24Zm-1.49-5.33-.25-.11-.19-.08c-.07,0-.14.09-.14.2a1.46,1.46,0,0,0,.22.56,5.57,5.57,0,0,0,.93,1.2,1,1,0,0,0,.43.28h0l.11-.11a.52.52,0,0,0,.08-.19l.05-.46.06-.33v-.13c0-.23-.06-.3-.29-.36l-.3-.11-.41-.16Zm2.54,1.69c0,.19.12.3.25.3a.28.28,0,0,0,.13-.06.73.73,0,0,0,.16-.14,5.18,5.18,0,0,0,.74-1l.27-.52.11-.33v0a.16.16,0,0,0-.16-.14l-.09,0-.19.13-.25.11-.38.17a3,3,0,0,1-.41.1c-.3.07-.38.14-.38.38l0,.22.11.41Z" transform="translate(-47.52 -368.51)" />
    <path class="cls-1" d="M86.25,406.92a1,1,0,0,1,.11-.31,1.06,1.06,0,0,1,.17-.23l.2-.11a1,1,0,0,1,.34-.09c.43,0,.7.42.7,1.08V409a.68.68,0,0,1-.77.73.73.73,0,0,1-.75-.73v-2.06Z" transform="translate(-47.52 -368.51)" />
    <path class="cls-1" d="M91.74,407.23c0-.64.32-1.05.82-1.05s.7.42.7,1.08V409a.68.68,0,0,1-.77.73.73.73,0,0,1-.75-.73v-1.75Z" transform="translate(-47.52 -368.51)" />
    <path class="cls-1" d="M97.06,406.92a.89.89,0,0,1,.12-.31.66.66,0,0,1,.17-.23,1.21,1.21,0,0,1,.19-.11,1.08,1.08,0,0,1,.34-.09c.43,0,.71.42.71,1.08V409a.68.68,0,0,1-.77.73.73.73,0,0,1-.76-.73v-2.06Z" transform="translate(-47.52 -368.51)" />
    <path class="cls-1" d="M86.39,411a.85.85,0,1,1-.84-.84A.84.84,0,0,1,86.39,411Z" transform="translate(-47.52 -368.51)" />
    <path class="cls-1" d="M100.33,411a.85.85,0,1,1-.84-.84A.84.84,0,0,1,100.33,411Z" transform="translate(-47.52 -368.51)" />
    <path class="cls-1" d="M86.39,417.65a.82.82,0,0,1-.81.84.85.85,0,1,1,.81-.84Z" transform="translate(-47.52 -368.51)" />
    <path class="cls-1" d="M100.33,417.65a.85.85,0,0,1-1.69,0,.85.85,0,1,1,1.69,0Z" transform="translate(-47.52 -368.51)" />
    <rect class="cls-1" x="38.34" y="53.44" width="1.66" height="2.14" />
    <rect class="cls-1" x="38.34" y="56.06" width="1.66" height="0.67" />
    <rect class="cls-1" x="49.65" y="53.44" width="1.66" height="2.14" />
    <rect class="cls-1" x="49.65" y="56.06" width="1.66" height="0.67" />
    <path class="cls-1" d="M90.48,414a3.4,3.4,0,0,0,1.92.62,3.54,3.54,0,0,0,2-.62,4.64,4.64,0,0,0-2-.48A4.05,4.05,0,0,0,90.48,414Z" transform="translate(-47.52 -368.51)" />
    <path class="cls-1" d="M83.53,466h-.31l.17-.31V423.14l.14-.37-.34.17H49.47l-.34.17.14-.36V405l-.14-.37.34.14H83.18l.34.17-.14-.36V370.45l-.17-.37.37.17h17.9l.37-.17-.17.37v34.08l-.17.36.37-.17h33.68l.37-.14-.17.37v17.8l.17.41-.37-.22H101.88l-.37-.17.17.37v42.57l.17.31h-.34l-9,4.44Zm-1-45.39h2.73v5.61h3.21v-5.55h8.11v5.55h3.2v-5.55h2.74V406.22H99.4l-.11-.17a1.75,1.75,0,0,0-1.51-.85,1.67,1.67,0,0,0-1.48,1H94.05a1.63,1.63,0,0,0-1.51-1,1.69,1.69,0,0,0-1.59,1H88.53a1.63,1.63,0,0,0-1.55-1,1.51,1.51,0,0,0-1.49,1H82.54Zm-27-14.1-.2.25a3.29,3.29,0,0,1-.5.51l.14.11.25.25.26.23.08.11v.24c0,2.23-.79,4.3-1.86,4.88-.17.1-.24.16-.24.24s.07.1.24.1H54l.54-.08.48-.09.28,0,.28,2H56l.28-2,.28,0,.48.09.53.08h.32a.25.25,0,0,0,.16-.05l0,0c0-.08-.06-.14-.24-.25-1.09-.63-1.86-2.64-1.86-4.88V408l.08-.11.25-.23.26-.25.14-.11a3.44,3.44,0,0,1-.51-.51l-.19-.25-.2-.23Zm10.74,0-.2.25a3.44,3.44,0,0,1-.51.51l.14.11.25.25.26.23.08.11v.24c0,2.23-.78,4.3-1.85,4.88-.18.1-.24.16-.24.24s.07.1.24.1h.25l.53-.08.48-.09.28,0,.29,2h.39l.28-2,.28,0,.48.09.54.08h.31c.1,0,.13,0,.16-.05s0,0,0,0-.06-.14-.24-.25c-1.09-.63-1.86-2.64-1.86-4.88V408l.09-.11.25-.23.25-.25.14-.11a3.29,3.29,0,0,1-.5-.51l-.2-.25-.2-.23Zm10.71,0-.2.25a3.44,3.44,0,0,1-.51.51l.14.11.26.25.25.23L77,408v.24c0,2.23-.79,4.3-1.86,4.88-.18.1-.24.16-.24.24s.07.1.24.1h.25l.53-.08.48-.09.28,0,.29,2h.39l.28-2,.28,0,.48.09.54.08h.31a.28.28,0,0,0,.17-.05s0,0,0,0-.06-.14-.24-.25c-1.09-.63-1.86-2.64-1.86-4.88V408l.09-.11.25-.23.25-.25.14-.11a3.29,3.29,0,0,1-.5-.51l-.2-.25-.2-.23Zm15.32,19.93-.19.26a3,3,0,0,1-.51.5l.14.11.25.26.26.22.08.12v.24c0,2.23-.78,4.3-1.86,4.88-.17.09-.23.16-.23.24s.07.1.23.1h.26l.53-.09.48-.08.28-.06.28,2h.4l.28-2,.28.06.48.08.54.09h.25l.22-.06,0,0c0-.07-.06-.14-.24-.24-1.09-.63-1.86-2.65-1.86-4.88v-.24l.09-.12.25-.22.25-.26.14-.11a2.9,2.9,0,0,1-.5-.5l-.2-.26-.2-.22ZM60.94,412.81l-.19.25a3,3,0,0,1-.51.51l.14.11.25.25.26.23.08.11v.25c0,2.22-.78,4.29-1.86,4.88-.17.09-.23.16-.23.24s.07.09.23.09h.26l.53-.08.48-.09.28-.05.28,2h.4l.28-2,.28.05.48.09.54.08h.31a.25.25,0,0,0,.16-.05.14.14,0,0,0,0,0c0-.08-.06-.14-.24-.24-1.09-.63-1.86-2.65-1.86-4.88v-.25l.09-.11.25-.23.25-.25.14-.11a2.9,2.9,0,0,1-.5-.51l-.2-.25-.2-.23Zm10.79,0-.2.25a3,3,0,0,1-.51.51l.14.11.25.25.26.23.08.11v.25c0,2.22-.79,4.29-1.86,4.88-.18.09-.24.16-.24.24s.07.09.24.09h.25l.53-.08.48-.09.28-.05.29,2h.39l.28-2,.28.05.48.09.54.08H74a.28.28,0,0,0,.17-.05s0,0,0,0-.06-.14-.24-.24c-1.09-.63-1.86-2.65-1.86-4.88v-.25l.09-.11.25-.23.25-.25.14-.11a2.9,2.9,0,0,1-.5-.51l-.2-.25-.2-.23Zm35.87-6.28-.2.25a3.29,3.29,0,0,1-.5.51l.14.11.25.25.25.23.09.11v.24c0,2.23-.79,4.3-1.86,4.88-.17.1-.24.16-.24.24s.07.1.24.1H106l.54-.08.48-.09.28,0,.28,2H108l.29-2,.28,0,.48.09.53.08h.32a.25.25,0,0,0,.16-.05l0,0c0-.08-.07-.14-.25-.25-1.09-.63-1.86-2.64-1.86-4.88V408l.08-.11.25-.23.26-.25.14-.11a3.44,3.44,0,0,1-.51-.51l-.2-.25-.19-.23Zm10.73,0-.19.25a3.44,3.44,0,0,1-.51.51l.14.11.25.25.26.23.08.11v.24c0,2.23-.78,4.3-1.86,4.88-.17.1-.23.16-.23.24s.07.1.23.1h.26l.53-.08.48-.09.28,0,.28,2h.4l.28-2,.28,0,.48.09.53.08h.32a.25.25,0,0,0,.16-.05l0,0c0-.08-.06-.14-.24-.25-1.09-.63-1.86-2.64-1.86-4.88V408l.08-.11.26-.23.25-.25.14-.11a3.29,3.29,0,0,1-.5-.51l-.2-.25-.2-.23Zm10.71,0-.19.25a3.44,3.44,0,0,1-.51.51l.14.11.25.25.26.23.08.11v.24c0,2.23-.78,4.3-1.86,4.88-.17.1-.23.16-.23.24s.07.1.23.1h.26l.53-.08.48-.09.28,0,.28,2h.4l.28-2,.28,0,.48.09.54.08h.31c.1,0,.13,0,.16-.05l0,0c0-.08-.06-.14-.24-.25-1.09-.63-1.86-2.64-1.86-4.88V408l.09-.11.25-.23.25-.25.14-.11a3.29,3.29,0,0,1-.5-.51l-.2-.25-.2-.23ZM113,412.81l-.19.25a3.46,3.46,0,0,1-.51.51l.14.11.25.25.26.23.08.11v.25c0,2.22-.79,4.29-1.86,4.88-.17.09-.23.16-.23.24s.07.09.23.09h.26l.53-.08.48-.09.28-.05.28,2h.4l.28-2,.28.05.48.09.54.08h.31a.25.25,0,0,0,.16-.05l0,0c0-.08-.06-.14-.24-.24-1.09-.63-1.86-2.65-1.86-4.88v-.25l.08-.11.26-.23.25-.25.14-.11a3.46,3.46,0,0,1-.51-.51l-.19-.25-.2-.23Zm10.78,0-.19.25a3,3,0,0,1-.51.51l.14.11.25.25.26.23.08.11v.25c0,2.22-.79,4.29-1.86,4.88-.17.09-.23.16-.23.24s.07.09.23.09h.26l.53-.08.48-.09.28-.05.28,2h.4l.28-2,.28.05.48.09.54.08h.31a.25.25,0,0,0,.16-.05.14.14,0,0,0,0,0c0-.08-.06-.14-.24-.24-1.09-.63-1.86-2.65-1.86-4.88v-.25l.09-.11.25-.23.25-.25.14-.11a2.9,2.9,0,0,1-.5-.51l-.2-.25-.2-.23ZM87.26,375l-.2.25a3,3,0,0,1-.51.51l.14.11.26.26.25.22.09.11v.25c0,2.22-.79,4.29-1.86,4.88-.17.09-.24.16-.24.24s.07.1.24.1h.25l.54-.09.47-.08.29-.06.28,2h.39l.28-2,.28.06.48.08.54.09h.31a.25.25,0,0,0,.17-.06s0,0,0,0-.06-.14-.24-.24c-1.09-.63-1.86-2.65-1.86-4.88v-.25l.09-.11.25-.22.25-.26.15-.11a3,3,0,0,1-.51-.51l-.2-.25-.19-.23Zm10.14,0-.19.25a3,3,0,0,1-.51.51l.14.11.25.26.26.22.08.11v.25c0,2.22-.79,4.29-1.86,4.88-.17.09-.23.16-.23.24s.07.1.23.1h.26l.53-.09.48-.08.28-.06.28,2h.4l.28-2,.28.06.48.08.53.09h.32a.24.24,0,0,0,.16-.06.14.14,0,0,0,0,0c0-.08-.06-.14-.24-.24-1.09-.63-1.86-2.65-1.86-4.88v-.25l.08-.11.26-.22.25-.26.14-.11a2.9,2.9,0,0,1-.5-.51l-.2-.25-.2-.23ZM87.26,392.8l-.2.26a3,3,0,0,1-.51.5l.14.12.26.25.25.22.09.12v.24c0,2.23-.79,4.3-1.86,4.88-.17.1-.24.16-.24.24s.07.1.24.1h.25l.54-.08.47-.09.29-.06.28,2h.39l.28-2,.28.06.48.09.54.08h.31c.11,0,.13,0,.17-.06a0,0,0,0,0,0,0c0-.08-.06-.14-.24-.25-1.09-.63-1.86-2.65-1.86-4.88v-.24l.09-.12.25-.22.25-.25.15-.12a3,3,0,0,1-.51-.5l-.2-.26-.19-.22Zm10.14,0-.19.26a3,3,0,0,1-.51.5l.14.12.25.25.26.22.08.12v.24c0,2.23-.79,4.3-1.86,4.88-.17.1-.23.16-.23.24s.07.1.23.1h.26l.53-.08.48-.09.28-.06.28,2h.4l.28-2,.28.06.48.09.53.08h.32c.1,0,.12,0,.16-.06l0,0c0-.08-.06-.14-.24-.25-1.09-.63-1.86-2.65-1.86-4.88v-.24l.08-.12.26-.22.25-.25.14-.12a2.9,2.9,0,0,1-.5-.5l-.2-.26-.2-.22Zm-5.05-8.91-.19.25a3.46,3.46,0,0,1-.51.51l.14.11L92,385l.26.22.08.11v.25c0,2.22-.79,4.29-1.86,4.88-.17.09-.23.16-.23.24s.07.1.23.1h.26l.53-.09.48-.08.28-.06.28,2h.4l.28-2,.28.06.48.08.53.09h.32c.1,0,.12,0,.16-.06l0,0c0-.07-.06-.14-.24-.24-1.09-.63-1.86-2.65-1.86-4.88v-.25l.08-.11.26-.22.25-.26.14-.11a3,3,0,0,1-.51-.51l-.19-.25-.2-.23Zm-5.09,51.72-.2.26a3.44,3.44,0,0,1-.51.51l.14.11.26.25.25.22.09.12v.24c0,2.23-.79,4.3-1.86,4.88-.17.1-.24.16-.24.24s.07.1.24.1h.25l.54-.08.47-.09.29-.05.28,2h.39l.28-2,.28.05.48.09.54.08h.31c.11,0,.13,0,.17-.06a0,0,0,0,0,0,0c0-.08-.06-.14-.24-.25-1.09-.63-1.86-2.65-1.86-4.88v-.24l.09-.12.25-.22.25-.25.15-.11a3.44,3.44,0,0,1-.51-.51l-.2-.26-.19-.22Zm10.14,0-.19.26a3.44,3.44,0,0,1-.51.51l.14.11.25.25.26.22.08.12v.24c0,2.23-.79,4.3-1.86,4.88-.17.1-.23.16-.23.24s.07.1.23.1h.26l.53-.08.48-.09.28-.05.28,2h.4l.28-2,.28.05.48.09.53.08h.32c.1,0,.12,0,.16-.06l0,0c0-.08-.06-.14-.24-.25-1.09-.63-1.86-2.65-1.86-4.88v-.24l.08-.12.26-.22.25-.25.14-.11a3.29,3.29,0,0,1-.5-.51l-.2-.26-.2-.22ZM87.26,453.93l-.2.25a3,3,0,0,1-.51.51l.14.11.26.26.25.22.09.11v.25c0,2.23-.79,4.29-1.86,4.88-.17.09-.24.16-.24.24s.07.1.24.1h.25l.54-.09.47-.08.29-.06.28,2h.39l.28-2,.28.06.48.08.54.09h.31a.25.25,0,0,0,.17-.06s0,0,0,0-.06-.14-.24-.24c-1.09-.63-1.86-2.65-1.86-4.88v-.25l.09-.11.25-.22.25-.26.15-.11a3,3,0,0,1-.51-.51l-.2-.25-.19-.23Zm10.14,0-.19.25a3,3,0,0,1-.51.51l.14.11.25.26.26.22.08.11v.25c0,2.23-.79,4.29-1.86,4.88-.17.09-.23.16-.23.24s.07.1.23.1h.26l.53-.09.48-.08.28-.06.28,2h.4l.28-2,.28.06.48.08.53.09h.32a.24.24,0,0,0,.16-.06.14.14,0,0,0,0,0c0-.07-.06-.14-.24-.24-1.09-.63-1.86-2.65-1.86-4.88v-.25l.08-.11.26-.22.25-.26.14-.11a2.9,2.9,0,0,1-.5-.51l-.2-.25-.2-.23Zm-5.05-9.14-.19.25a3.47,3.47,0,0,1-.51.5l.14.12.25.25.26.23.08.11v.24c0,2.23-.79,4.3-1.86,4.89-.17.09-.23.15-.23.23s.07.1.23.1h.26l.53-.08.48-.09.28-.05.28,2h.4l.28-2,.28.05.48.09.53.08s.22,0,.32,0a.25.25,0,0,0,.16,0l0,0c0-.08-.06-.14-.24-.24-1.09-.64-1.86-2.65-1.86-4.89v-.24l.08-.11.26-.23.25-.25.14-.12a3,3,0,0,1-.51-.5l-.19-.25-.2-.23Z" transform="translate(-47.52 -368.51)" />
    <path class="cls-2" d="M88.11,414.2h0a5.7,5.7,0,0,1,8.62,0,5.1,5.1,0,0,1-4.19,2.17,5.38,5.38,0,0,1-4.43-2.17Zm.85,0h0a4.82,4.82,0,0,0,3.44,1.49,4.4,4.4,0,0,0,3.45-1.46,5.11,5.11,0,0,0-3.43-1.34A5.29,5.29,0,0,0,89,414.2Z" transform="translate(-47.52 -368.51)" />
</svg>